<?xml version="1.0" encoding="UTF-8"?>
<svg id="Ebene_1" data-name="Ebene 1" xmlns="http://www.w3.org/2000/svg" xmlns:xlink="http://www.w3.org/1999/xlink" viewBox="0 0 1030.71 782.14">
  <defs>
    <clipPath id="clippath">
      <circle cx="515.47" cy="325.29" r="244.74" style="fill: none;"/>
    </clipPath>
  </defs>
  <g>
    <circle cx="515.47" cy="325.29" r="244.74" style="fill: #2b388a;"/>
    <path d="M515.47,4.11c86.56,0,167.94,33.71,229.14,94.91,61.21,61.21,94.91,142.58,94.91,229.14s-33.71,167.94-94.91,229.14c-61.21,61.21-142.58,94.91-229.14,94.91s-167.94-33.71-229.14-94.91c-61.21-61.21-94.91-142.58-94.91-229.14s33.71-167.94,94.91-229.14C347.53,37.81,428.91,4.11,515.47,4.11m0-4.11C334.23,0,187.3,146.92,187.3,328.16s146.92,328.16,328.16,328.16,328.16-146.92,328.16-328.16S696.71,0,515.47,0h0Z" style="fill: #1d1d1b;"/>
    <g style="clip-path: url(#clippath);">
      <g>
        <rect x="472.72" y="211.62" width="180.97" height="140.65" rx="11.89" ry="11.89" style="fill: #8a93b4;"/>
        <path d="M649.58,215.73v132.43h-172.76V215.73h172.76m1.03-4.11h-174.81c-1.7,0-3.08,1.38-3.08,3.08v134.49c0,1.7,1.38,3.08,3.08,3.08h174.81c1.7,0,3.08-1.38,3.08-3.08V214.7c0-1.7-1.38-3.08-3.08-3.08h0Z"/>
      </g>
      <g>
        <path d="M282.51,352.27h158.02c4.11,0,7.44-3.51,7.44-7.85V100.91l-165.46,251.36Z" style="fill: #8a93b4;"/>
        <path d="M443.86,114.62v229.81c0,2.06-1.5,3.74-3.33,3.74h-150.4L443.86,114.62m4.11-13.71l-165.46,251.36h158.02c4.11,0,7.44-3.51,7.44-7.85V100.91h0Z"/>
      </g>
      <g>
        <rect x="171.26" y="361.93" width="394.43" height="17.49" rx="1.5" ry="1.5" style="fill: #fff;"/>
        <path d="M562.61,381.47H174.34c-2.83,0-5.13-2.3-5.13-5.13v-11.33c0-2.83,2.3-5.13,5.13-5.13h388.27c2.83,0,5.13,2.3,5.13,5.13v11.33c0,2.83-2.3,5.13-5.13,5.13Zm-388.27-17.49c-.57,0-1.03,.46-1.03,1.03v11.33c0,.57,.46,1.03,1.03,1.03h388.27c.57,0,1.03-.46,1.03-1.03v-11.33c0-.57-.46-1.03-1.03-1.03H174.34Z"/>
      </g>
      <g>
        <rect x="472.72" y="4.94" width="180.97" height="197.7" rx="13.05" ry="13.05" style="fill: #8a93b4;"/>
        <path d="M649.58,9.05V198.53h-172.76V9.05h172.76m1.03-4.11h-174.81c-1.7,0-3.08,1.38-3.08,3.08V199.56c0,1.7,1.38,3.08,3.08,3.08h174.81c1.7,0,3.08-1.38,3.08-3.08V8.02c0-1.7-1.38-3.08-3.08-3.08h0Z"/>
      </g>
      <g>
        <rect x="171.26" y="389.28" width="276.7" height="52.72" rx="18.24" ry="18.24" style="fill: #8a93b4;"/>
        <path d="M443.86,393.39v44.51H175.37v-44.51H443.86m1.03-4.11H174.34c-1.7,0-3.08,1.38-3.08,3.08v46.56c0,1.7,1.38,3.08,3.08,3.08H444.89c1.7,0,3.08-1.38,3.08-3.08v-46.56c0-1.7-1.38-3.08-3.08-3.08h0Z"/>
      </g>
      <g>
        <rect x="472.43" y="389.57" width="180.97" height="104.44" rx="14.06" ry="14.06" style="fill: #8a93b4;"/>
        <path d="M649.3,393.68v96.23h-172.76v-96.23h172.76m1.03-4.11h-174.81c-1.7,0-3.08,1.38-3.08,3.08v98.28c0,1.7,1.38,3.08,3.08,3.08h174.81c1.7,0,3.08-1.38,3.08-3.08v-98.28c0-1.7-1.38-3.08-3.08-3.08h0Z"/>
      </g>
      <g>
        <rect x="472.72" y="504.15" width="180.97" height="127.29" rx="13.52" ry="13.52" style="fill: #8a93b4;"/>
        <path d="M649.58,508.26v119.07h-172.76v-119.07h172.76m1.03-4.11h-174.81c-1.7,0-3.08,1.38-3.08,3.08v121.13c0,1.7,1.38,3.08,3.08,3.08h174.81c1.7,0,3.08-1.38,3.08-3.08v-121.13c0-1.7-1.38-3.08-3.08-3.08h0Z"/>
      </g>
    </g>
    <path d="M515.47,80.55c135.16,0,244.74,109.57,244.74,244.74s-109.57,244.74-244.74,244.74-244.74-109.57-244.74-244.74,109.57-244.74,244.74-244.74m0-4.11c-66.47,0-128.96,25.88-175.96,72.88-47,47-72.88,109.49-72.88,175.96s25.88,128.96,72.88,175.96c47,47,109.49,72.88,175.96,72.88s128.96-25.88,175.96-72.88c47-47,72.88-109.49,72.88-175.96s-25.88-128.96-72.88-175.96c-47-47-109.49-72.88-175.96-72.88h0Z" style="fill: #1d1d1b;"/>
    <g>
      <path d="M280.25,515.62l23.79-19.25,2.56,3.17-23.79,19.25-2.56-3.17Z" style="fill: #1d1d1b;"/>
      <path d="M271.66,504.47l11.37-27.32-.05-.07-20.48,14.02-2.18-3.18,25.25-17.29,2.52,3.68-11.23,27.07,.05,.07,20.26-13.88,2.18,3.18-25.25,17.29-2.45-3.57Z" style="fill: #1d1d1b;"/>
      <path d="M259.77,480.44l-3.02,1.63-11.65-21.53,3.02-1.63,4.85,8.97,23.9-12.93,1.94,3.58-23.9,12.93,4.85,8.97Z" style="fill: #1d1d1b;"/>
      <path d="M234.09,434.99l3.16-1.33,6.64,15.71,8.96-3.79-6.19-14.65,3.16-1.34,6.19,14.65,9.75-4.12-6.69-15.83,3.16-1.33,8.27,19.58-28.19,11.91-8.23-19.46Z" style="fill: #1d1d1b;"/>
      <path d="M226.98,413.12c-.85-2.79-.83-5.18,.06-7.16,.89-1.99,2.52-3.34,4.9-4.07,1.78-.54,3.46-.61,5.04-.21,1.58,.4,2.89,1.41,3.92,3.04l.08-.03c-.09-.9-.03-1.67,.19-2.32,.22-.65,.55-1.21,.99-1.69,.44-.48,.96-.89,1.57-1.24,.61-.35,1.26-.67,1.94-.97,.69-.27,1.41-.53,2.14-.78,.73-.25,1.43-.54,2.11-.87,.68-.33,1.31-.69,1.89-1.09,.58-.4,1.05-.88,1.42-1.44l1.32,4.35c-.22,.36-.57,.67-1.06,.93-.49,.25-1.05,.49-1.68,.71-.63,.22-1.32,.46-2.05,.71-.73,.25-1.43,.56-2.1,.91-.68,.33-1.31,.67-1.91,1.03-.59,.36-1.07,.79-1.44,1.29-.37,.5-.61,1.08-.73,1.74-.11,.66-.02,1.47,.27,2.43l2.89,9.51,12.51-3.8,1.18,3.9-29.28,8.91-4.19-13.78Zm13.04-4.86c-.39-.78-.87-1.42-1.45-1.91-.58-.49-1.27-.82-2.05-.99s-1.71-.08-2.77,.24c-1.48,.45-2.55,1.23-3.23,2.33-.68,1.1-.74,2.57-.18,4.4l2.94,9.68,10.21-3.11-2.47-8.12c-.27-.9-.6-1.74-.99-2.52Z" style="fill: #1d1d1b;"/>
      <path d="M221.29,390.92l21.46-20.37-.02-.08-24.4,4.52-.7-3.79,30.09-5.58,.81,4.38-21.23,20.2v.08l24.16-4.48,.7,3.79-30.09,5.58-.79-4.26Z" style="fill: #1d1d1b;"/>
      <path d="M215.44,348.3l29.62-14.23,.34,4.49-8.94,4.03,.97,12.91,9.45,2.73,.31,4.15-31.41-9.58-.34-4.49Zm17.7-4.17l-13.85,6.16v.08l14.63,4.1-.78-10.34Z" style="fill: #1d1d1b;"/>
      <path d="M218.09,337.55l-3.43-.03,.21-24.47,3.43,.03-.09,10.2,27.17,.24-.04,4.07-27.17-.23-.09,10.2Z" style="fill: #1d1d1b;"/>
      <path d="M215.8,302.76l30.51,2.36-.31,4.06-30.51-2.36,.31-4.06Z" style="fill: #1d1d1b;"/>
      <path d="M225.56,295.17c-1.81-.91-3.34-2.1-4.61-3.55-1.27-1.45-2.2-3.15-2.78-5.09-.58-1.95-.68-4.12-.29-6.52,.39-2.4,1.17-4.43,2.33-6.09,1.17-1.66,2.58-2.98,4.25-3.96,1.66-.98,3.5-1.61,5.5-1.91,2-.3,4.03-.28,6.09,.05,2.06,.33,3.99,.96,5.8,1.87,1.81,.92,3.34,2.1,4.61,3.55s2.19,3.15,2.76,5.09c.57,1.95,.66,4.12,.27,6.51-.39,2.4-1.16,4.43-2.31,6.1-1.15,1.67-2.56,2.99-4.22,3.96-1.66,.98-3.5,1.61-5.5,1.91-2,.3-4.03,.28-6.09-.05-2.06-.33-3.99-.95-5.8-1.87Zm11.05-2.01c1.55-.16,2.98-.56,4.3-1.22s2.45-1.58,3.38-2.8c.93-1.21,1.55-2.73,1.85-4.57,.3-1.83,.19-3.47-.31-4.91-.5-1.44-1.28-2.68-2.33-3.72-1.05-1.04-2.28-1.87-3.7-2.51-1.42-.63-2.89-1.07-4.41-1.32-1.52-.25-3.06-.29-4.6-.14-1.54,.16-2.98,.56-4.3,1.21-1.32,.66-2.45,1.59-3.38,2.8-.93,1.21-1.55,2.73-1.85,4.57-.3,1.83-.19,3.47,.31,4.91,.5,1.44,1.28,2.68,2.33,3.72,1.05,1.04,2.28,1.87,3.7,2.51,1.42,.64,2.89,1.07,4.41,1.32s3.06,.29,4.6,.14Z" style="fill: #1d1d1b;"/>
      <path d="M224.19,252.94l28.3-8.64,.02-.08-23.85-6.84,1.06-3.71,29.42,8.44-1.23,4.29-28.02,8.59-.02,.08,23.61,6.78-1.07,3.71-29.42-8.44,1.19-4.16Z" style="fill: #1d1d1b;"/>
      <path d="M238.04,212.15l32.85,.56-1.71,4.16-9.79-.41-4.92,11.97,7.22,6.67-1.58,3.85-23.79-22.64,1.71-4.16Zm17.69,4.2l-15.14-.7-.03,.08,11.23,10.22,3.94-9.6Z" style="fill: #1d1d1b;"/>
      <path d="M247.43,191.85l24.03,12.7,7.57-14.32,3.03,1.6-9.48,17.92-27.06-14.3,1.9-3.6Z" style="fill: #1d1d1b;"/>
      <path d="M278.56,149.86c-1.6,.52-3.02,1.63-4.26,3.34-.5,.69-.93,1.43-1.28,2.2-.35,.77-.55,1.54-.61,2.29-.06,.76,.08,1.49,.39,2.19,.32,.71,.88,1.36,1.69,1.94,.76,.55,1.54,.78,2.35,.67,.8-.11,1.63-.42,2.47-.96,.85-.53,1.71-1.2,2.6-2,.89-.8,1.8-1.61,2.75-2.43,.94-.81,1.92-1.58,2.92-2.3,1-.72,2.04-1.26,3.12-1.63,1.08-.36,2.19-.48,3.32-.34,1.14,.14,2.32,.65,3.54,1.54,1.32,.96,2.23,2.07,2.74,3.34,.51,1.27,.72,2.58,.63,3.93-.08,1.35-.41,2.7-.97,4.04-.57,1.34-1.26,2.57-2.09,3.7-1.01,1.39-2.13,2.57-3.38,3.56-1.25,.98-2.56,1.69-3.95,2.11-1.39,.42-2.82,.51-4.32,.25s-2.99-.93-4.49-2.02l2.27-3.12c1.04,.76,2.08,1.21,3.13,1.35,1.05,.14,2.05,.06,3.02-.24,.96-.3,1.88-.81,2.75-1.52,.87-.71,1.64-1.53,2.31-2.45,.54-.74,1.01-1.53,1.42-2.39,.41-.85,.66-1.7,.77-2.55,.1-.84,0-1.66-.31-2.45-.31-.79-.91-1.51-1.81-2.17-.85-.62-1.71-.9-2.57-.84-.86,.06-1.73,.35-2.61,.85-.88,.51-1.77,1.16-2.67,1.96s-1.81,1.61-2.75,2.43c-.93,.82-1.89,1.6-2.87,2.34-.98,.74-1.98,1.31-3,1.71-1.02,.41-2.07,.56-3.15,.46-1.08-.09-2.19-.56-3.32-1.38-1.25-.91-2.14-1.95-2.69-3.12-.54-1.17-.8-2.39-.78-3.67,.03-1.27,.28-2.55,.78-3.83,.49-1.28,1.15-2.49,1.98-3.62,.92-1.27,1.93-2.34,3.02-3.21,1.09-.87,2.26-1.47,3.5-1.82,1.24-.35,2.53-.4,3.86-.16,1.33,.24,2.69,.84,4.09,1.78l-2.27,3.12c-1.91-1.11-3.67-1.41-5.26-.89Z" style="fill: #1d1d1b;"/>
      <path d="M291.36,141.45c-1.01-1.76-1.65-3.59-1.91-5.5-.27-1.91-.11-3.84,.47-5.78,.58-1.95,1.69-3.82,3.33-5.61,1.64-1.79,3.4-3.06,5.29-3.82,1.89-.75,3.8-1.08,5.72-.98,1.93,.1,3.81,.57,5.65,1.42,1.84,.85,3.53,1.98,5.06,3.39,1.54,1.41,2.81,2.99,3.82,4.74,1.01,1.76,1.64,3.59,1.91,5.5,.27,1.91,.1,3.84-.49,5.77-.59,1.94-1.71,3.8-3.35,5.59-1.64,1.79-3.4,3.07-5.28,3.83-1.88,.76-3.78,1.09-5.71,1-1.92-.1-3.81-.57-5.65-1.42-1.84-.85-3.53-1.98-5.06-3.39-1.54-1.41-2.81-2.99-3.82-4.74Zm10.34,4.38c1.38,.72,2.8,1.16,4.26,1.34,1.46,.18,2.92,.02,4.36-.48,1.44-.5,2.79-1.43,4.05-2.8,1.25-1.37,2.07-2.8,2.43-4.28,.37-1.48,.4-2.94,.09-4.39-.31-1.44-.88-2.82-1.71-4.12-.84-1.31-1.82-2.48-2.96-3.53-1.14-1.04-2.39-1.92-3.77-2.64-1.38-.72-2.8-1.17-4.26-1.34-1.46-.18-2.92-.02-4.36,.48-1.45,.5-2.79,1.43-4.05,2.8-1.25,1.37-2.07,2.8-2.43,4.28-.37,1.48-.4,2.94-.09,4.39,.31,1.44,.88,2.82,1.71,4.12,.84,1.31,1.82,2.48,2.96,3.53,1.14,1.04,2.4,1.92,3.77,2.64Z" style="fill: #1d1d1b;"/>
      <path d="M326.96,99.39c-1.89,.2-3.64,.99-5.27,2.39-1.38,1.19-2.35,2.48-2.88,3.84-.54,1.37-.75,2.77-.63,4.19,.12,1.43,.51,2.83,1.18,4.22,.67,1.38,1.52,2.69,2.57,3.9,1.14,1.32,2.37,2.44,3.69,3.36,1.32,.92,2.68,1.54,4.07,1.87,1.39,.33,2.81,.32,4.26-.02,1.44-.34,2.86-1.11,4.24-2.3,1.02-.88,1.78-1.82,2.28-2.84,.5-1.02,.78-2.07,.84-3.16,.06-1.09-.1-2.19-.49-3.29-.39-1.1-.95-2.16-1.71-3.16l3.08-2.66c2.21,3.18,3.17,6.32,2.86,9.42-.31,3.1-1.95,5.93-4.91,8.48-1.8,1.55-3.63,2.59-5.5,3.13-1.87,.54-3.72,.65-5.54,.33-1.82-.32-3.59-1.02-5.3-2.11-1.71-1.09-3.3-2.48-4.75-4.17-1.46-1.69-2.58-3.48-3.39-5.37-.8-1.89-1.22-3.79-1.25-5.68-.03-1.9,.36-3.76,1.19-5.58,.82-1.82,2.12-3.5,3.9-5.03,1.21-1.05,2.5-1.87,3.86-2.48,1.36-.61,2.74-.96,4.12-1.06,1.39-.1,2.77,.08,4.14,.53,1.37,.46,2.68,1.23,3.92,2.31l-3.08,2.66c-1.76-1.34-3.59-1.92-5.48-1.73Z" style="fill: #1d1d1b;"/>
      <path d="M339.7,84.17l18.08,24.7-3.29,2.41-18.07-24.7,3.29-2.41Z" style="fill: #1d1d1b;"/>
      <path d="M365.4,67.31l1.82,2.9-14.45,9.07,5.17,8.24,13.47-8.45,1.82,2.9-13.47,8.45,5.63,8.97,14.56-9.13,1.82,2.9-18.01,11.3-16.27-25.92,17.9-11.23Z" style="fill: #1d1d1b;"/>
      <path d="M371.36,67.84l-1.54-3.06,21.88-10.96,1.54,3.07-9.12,4.57,12.17,24.3-3.64,1.82-12.17-24.3-9.12,4.57Z" style="fill: #1d1d1b;"/>
      <path d="M420.69,75.23l-3.8,1.46-4.47-11.69-17.51-12.67,4.52-1.73,13.78,10.33,3.16-16.81,4.32-1.65-4.47,21.07,4.47,11.69Z" style="fill: #1d1d1b;"/>
      <path d="M460.4,32.38l.75,3.35-15.64,3.5,2.13,9.5,13.72-3.07,.75,3.35-13.72,3.07,3.06,13.68-3.97,.89-6.69-29.87,19.62-4.39Z" style="fill: #1d1d1b;"/>
      <path d="M468.63,40.25c.39-1.98,1.11-3.79,2.16-5.41,1.05-1.62,2.43-2.97,4.15-4.06,1.72-1.09,3.78-1.77,6.19-2.05s4.58-.08,6.5,.59c1.92,.67,3.57,1.67,4.96,3.01,1.39,1.33,2.5,2.92,3.33,4.77,.83,1.84,1.36,3.8,1.6,5.88,.24,2.07,.16,4.1-.22,6.09-.39,1.99-1.11,3.79-2.16,5.41-1.05,1.62-2.44,2.96-4.15,4.04-1.72,1.08-3.78,1.75-6.19,2.03-2.41,.28-4.58,.09-6.5-.57-1.92-.65-3.57-1.65-4.96-2.99-1.39-1.33-2.5-2.92-3.33-4.77-.83-1.84-1.37-3.8-1.61-5.88-.24-2.07-.17-4.1,.22-6.09Zm4.94,10.09c.57,1.45,1.35,2.71,2.34,3.81s2.19,1.93,3.61,2.5c1.42,.57,3.05,.75,4.89,.54,1.85-.21,3.39-.76,4.65-1.64,1.25-.88,2.23-1.96,2.95-3.25,.71-1.29,1.18-2.7,1.41-4.24,.23-1.54,.25-3.07,.07-4.6-.18-1.53-.55-3.02-1.12-4.47-.57-1.45-1.35-2.71-2.34-3.81-.99-1.09-2.19-1.93-3.61-2.5-1.42-.57-3.05-.75-4.89-.54-1.85,.21-3.39,.76-4.64,1.63-1.25,.88-2.23,1.96-2.95,3.25-.72,1.29-1.18,2.7-1.41,4.24-.23,1.54-.25,3.07-.07,4.6s.55,3.02,1.12,4.47Z" style="fill: #1d1d1b;"/>
      <path d="M518.9,27.46c2.92,0,5.19,.72,6.84,2.14,1.64,1.43,2.46,3.39,2.46,5.87,0,1.86-.42,3.49-1.26,4.89-.84,1.4-2.19,2.36-4.05,2.87v.09c.89,.17,1.61,.46,2.17,.86,.56,.4,1,.88,1.33,1.44s.57,1.18,.73,1.87c.16,.69,.28,1.4,.37,2.14,.06,.74,.1,1.5,.13,2.27,.03,.77,.1,1.53,.21,2.27,.11,.74,.28,1.45,.49,2.12,.22,.67,.54,1.26,.96,1.78h-4.54c-.29-.31-.48-.74-.58-1.29-.1-.54-.17-1.15-.19-1.82-.03-.67-.06-1.39-.09-2.17-.03-.77-.11-1.53-.26-2.27-.11-.74-.26-1.45-.43-2.12-.17-.67-.44-1.26-.81-1.76-.37-.5-.86-.9-1.46-1.2-.6-.3-1.4-.45-2.4-.45h-9.95v13.07h-4.07V27.46h14.4Zm.86,13.89c.86-.14,1.61-.42,2.25-.84,.64-.41,1.16-.97,1.54-1.67,.39-.7,.58-1.61,.58-2.72,0-1.54-.43-2.8-1.29-3.77-.86-.97-2.24-1.46-4.16-1.46h-10.12v10.67h8.49c.94,0,1.84-.07,2.7-.21Z" style="fill: #1d1d1b;"/>
      <path d="M557.45,30.2l5.11,26.99,13.94-23.68,5.49,.95-5.23,30.15-3.8-.66,4.35-25.09-.08-.02-13.77,23.45-3.42-.59-5.07-26.72h-.09l-4.35,25.07-3.8-.66,5.23-30.15,5.49,.95Z" style="fill: #1d1d1b;"/>
      <path d="M595.73,38.31l-7.97,29.55-3.93-1.06,7.98-29.55,3.93,1.06Z" style="fill: #1d1d1b;"/>
      <path d="M609.22,42.3l6.82,28.8,.08,.03,8.36-23.37,3.63,1.3-10.31,28.82-4.2-1.5-6.78-28.51-.08-.03-8.27,23.13-3.63-1.3,10.31-28.82,4.08,1.46Z" style="fill: #1d1d1b;"/>
      <path d="M640.66,54.73l-12.57,27.9-3.71-1.67,12.57-27.91,3.71,1.67Z" style="fill: #1d1d1b;"/>
      <path d="M654.88,61.54l-4.25,27.14,21.08-17.63,4.85,2.74-15.06,26.65-3.36-1.9,12.52-22.17-.07-.04-20.85,17.46-3.02-1.71,4.2-26.87-.07-.04-12.52,22.17-3.36-1.9,15.05-26.65,4.85,2.74Z" style="fill: #1d1d1b;"/>
      <path d="M695.67,87.42l-8.52,31.73-3.63-2.67,2.77-9.4-10.42-7.68-8.23,5.39-3.35-2.47,27.74-17.58,3.62,2.67Zm-8.37,16.14l4.36-14.52-.07-.05-12.64,8.42,8.35,6.15Z" style="fill: #1d1d1b;"/>
      <path d="M713.08,101.44l-18.15,20.23,12.06,10.82-2.29,2.55-15.09-13.54,20.44-22.78,3.03,2.72Z" style="fill: #1d1d1b;"/>
      <path d="M741.87,130.17l-22.88,20.33-2.7-3.04,22.88-20.33,2.7,3.04Z" style="fill: #1d1d1b;"/>
      <path d="M750.96,140.9l-10.09,27.82,.05,.07,19.8-14.96,2.33,3.08-24.42,18.44-2.69-3.56,9.97-27.56-.05-.07-19.6,14.8-2.32-3.08,24.42-18.44,2.61,3.45Z" style="fill: #1d1d1b;"/>
      <path d="M763.95,164.35l2.94-1.77,12.63,20.96-2.94,1.77-5.27-8.74-23.28,14.03-2.1-3.49,23.27-14.03-5.27-8.74Z" style="fill: #1d1d1b;"/>
      <path d="M791.73,208.59l-3.09,1.48-7.36-15.39-8.78,4.2,6.86,14.34-3.09,1.48-6.86-14.35-9.55,4.57,7.42,15.51-3.09,1.48-9.18-19.18,27.61-13.21,9.12,19.06Z" style="fill: #1d1d1b;"/>
      <path d="M799.84,230.08c.98,2.75,1.07,5.13,.27,7.16-.8,2.03-2.37,3.45-4.71,4.29-1.75,.62-3.43,.77-5.03,.45-1.6-.32-2.96-1.28-4.06-2.86l-.08,.03c.14,.89,.11,1.67-.08,2.33-.19,.66-.49,1.24-.91,1.73-.42,.5-.92,.93-1.51,1.31-.59,.38-1.23,.73-1.9,1.06-.68,.3-1.38,.6-2.1,.88-.72,.29-1.41,.61-2.07,.96-.66,.36-1.27,.75-1.83,1.18-.56,.43-1.01,.93-1.35,1.5l-1.52-4.28c.2-.38,.54-.7,1.02-.98,.48-.28,1.03-.54,1.65-.79,.62-.25,1.29-.52,2.01-.81,.72-.29,1.4-.62,2.05-1,.66-.36,1.28-.73,1.85-1.12,.57-.39,1.04-.84,1.38-1.36,.34-.52,.56-1.11,.64-1.78,.08-.66-.05-1.47-.38-2.41l-3.33-9.37-12.32,4.38-1.36-3.84,28.84-10.25,4.82,13.57Zm-12.8,5.46c.42,.76,.94,1.37,1.54,1.84,.61,.47,1.3,.76,2.09,.89,.79,.13,1.71,0,2.76-.36,1.46-.52,2.5-1.34,3.12-2.48,.63-1.13,.62-2.6-.02-4.4l-3.39-9.53-10.06,3.58,2.84,8c.32,.89,.68,1.71,1.11,2.47Z" style="fill: #1d1d1b;"/>
      <path d="M777.26,261.37l27.17-17.73,1.04,4.25-23.69,14.81,.02,.08,27.87,2.26,1.01,4.12-32.31-3.29-1.1-4.5Z" style="fill: #1d1d1b;"/>
      <path d="M814.71,296.81l-3.4,.46-2.27-16.91-9.64,1.3,2.12,15.76-3.4,.46-2.12-15.76-10.49,1.41,2.29,17.03-3.4,.46-2.83-21.07,30.33-4.08,2.82,20.94Z" style="fill: #1d1d1b;"/>
      <path d="M815.77,309.45l-24.2,17.03v.08l24.8-.93,.14,3.86-30.58,1.15-.17-4.46,23.94-16.9v-.09l-24.55,.92-.14-3.86,30.58-1.14,.16,4.33Z" style="fill: #1d1d1b;"/>
      <path d="M813.01,336.14l3.42,.23-1.63,24.42-3.42-.23,.68-10.18-27.11-1.81,.27-4.06,27.11,1.81,.68-10.18Z" style="fill: #1d1d1b;"/>
      <path d="M813.27,370.95l-30.32-4.13,.55-4.04,30.33,4.13-.55,4.03Z" style="fill: #1d1d1b;"/>
      <path d="M803.09,377.97c1.75,1.02,3.22,2.29,4.4,3.81,1.18,1.52,2.01,3.27,2.48,5.25s.44,4.15-.09,6.52c-.53,2.37-1.42,4.35-2.68,5.95-1.26,1.59-2.75,2.83-4.47,3.71-1.72,.88-3.58,1.41-5.6,1.59-2.02,.18-4.04,.05-6.08-.41-2.04-.45-3.93-1.19-5.68-2.21s-3.22-2.29-4.4-3.81c-1.18-1.52-2-3.27-2.46-5.24-.45-1.97-.42-4.15,.11-6.52,.53-2.37,1.41-4.36,2.66-5.95,1.25-1.6,2.73-2.83,4.45-3.71,1.72-.88,3.58-1.41,5.6-1.59,2.02-.18,4.04-.05,6.08,.41,2.03,.45,3.93,1.19,5.68,2.21Zm-11.15,1.36c-1.55,.07-3.01,.39-4.36,.96-1.36,.58-2.54,1.44-3.54,2.59-1,1.15-1.71,2.64-2.11,4.45-.4,1.81-.39,3.45,.03,4.92,.42,1.47,1.12,2.75,2.11,3.85,.99,1.1,2.17,2,3.54,2.72,1.38,.72,2.82,1.24,4.33,1.57,1.51,.34,3.04,.47,4.59,.4,1.55-.07,3.01-.38,4.36-.96,1.36-.58,2.54-1.44,3.54-2.59,1-1.15,1.71-2.64,2.11-4.45,.4-1.81,.39-3.45-.03-4.92s-1.12-2.75-2.11-3.85c-.99-1.1-2.17-2.01-3.54-2.72-1.38-.72-2.82-1.24-4.33-1.58-1.51-.33-3.04-.47-4.59-.4Z" style="fill: #1d1d1b;"/>
      <path d="M801.98,420.25l-28.76,6.98-.03,.08,23.42,8.22-1.28,3.64-28.88-10.14,1.48-4.21,28.47-6.95,.03-.08-23.17-8.14,1.28-3.64,28.88,10.14-1.43,4.08Z" style="fill: #1d1d1b;"/>
      <path d="M783.64,464.46l-27.36-13.7,1.82-3.64,27.36,13.7-1.82,3.64Z" style="fill: #1d1d1b;"/>
      <path d="M777.06,476.88l-29.58,.96-.05,.07,21.24,12.83-2,3.3-26.19-15.82,2.3-3.81,29.29-.99,.04-.07-21.02-12.7,1.99-3.3,26.2,15.82-2.24,3.71Z" style="fill: #1d1d1b;"/>
    </g>
    <g>
      <path d="M357.63,548.23c-.36-1.64-1.34-3.15-2.93-4.55-.64-.57-1.33-1.06-2.07-1.48-.73-.42-1.47-.69-2.22-.82-.75-.12-1.49-.06-2.22,.19-.73,.25-1.43,.75-2.09,1.5-.62,.71-.92,1.46-.89,2.27,.03,.81,.27,1.66,.72,2.55,.45,.89,1.03,1.82,1.75,2.77,.72,.96,1.44,1.95,2.16,2.97,.72,1.02,1.39,2.06,2.02,3.12,.62,1.07,1.07,2.15,1.33,3.26,.26,1.11,.27,2.22,.03,3.34-.24,1.12-.87,2.24-1.87,3.38-1.08,1.22-2.27,2.02-3.59,2.41-1.31,.39-2.64,.47-3.98,.26-1.34-.21-2.65-.66-3.92-1.35-1.28-.69-2.44-1.5-3.49-2.42-1.29-1.13-2.36-2.37-3.22-3.7-.86-1.33-1.44-2.71-1.73-4.13-.29-1.42-.24-2.86,.16-4.32,.39-1.46,1.21-2.89,2.44-4.28l2.89,2.55c-.85,.97-1.4,1.96-1.64,2.99-.24,1.03-.25,2.04-.04,3.03,.21,.99,.63,1.95,1.26,2.88,.62,.93,1.36,1.78,2.22,2.53,.69,.61,1.43,1.15,2.24,1.64,.81,.49,1.63,.82,2.46,1,.83,.18,1.65,.15,2.47-.08,.81-.23,1.59-.77,2.33-1.6,.7-.79,1.06-1.62,1.07-2.48,.02-.86-.18-1.76-.61-2.68-.42-.93-.99-1.87-1.69-2.84-.71-.97-1.43-1.96-2.16-2.96-.73-1.01-1.42-2.03-2.06-3.08-.64-1.04-1.12-2.09-1.43-3.15-.31-1.05-.36-2.11-.17-3.18,.2-1.06,.76-2.12,1.68-3.17,1.02-1.16,2.14-1.95,3.36-2.38s2.46-.57,3.72-.43c1.26,.14,2.51,.52,3.74,1.13,1.23,.61,2.37,1.38,3.42,2.31,1.18,1.04,2.15,2.14,2.91,3.31,.76,1.17,1.26,2.39,1.49,3.66,.23,1.27,.16,2.56-.2,3.85-.37,1.3-1.08,2.6-2.16,3.9l-2.89-2.55c1.28-1.8,1.74-3.52,1.38-5.16Z" style="fill: #1d1d1b;"/>
      <path d="M380.75,560.54c2.53,1.77,3.99,3.76,4.39,5.96,.39,2.21-.23,4.49-1.86,6.83-1.63,2.35-3.56,3.72-5.78,4.12-2.22,.41-4.58-.29-7.1-2.08l-7.66-5.35-7.16,10.27-3.34-2.33,17.51-25.1,11,7.68Zm-9.51,11.24c1.88,1.35,3.54,1.93,4.97,1.75,1.43-.18,2.68-1.02,3.72-2.52,1.05-1.5,1.4-2.95,1.07-4.35-.33-1.4-1.45-2.76-3.35-4.09l-6.54-4.56-6.43,9.21,6.54,4.56Z" style="fill: #1d1d1b;"/>
      <path d="M396.62,570.45l-15.42,26.43-3.52-2.05,15.42-26.43,3.52,2.05Z" style="fill: #1d1d1b;"/>
      <path d="M406.35,575.85l3.98,29.32,.08,.04,10.59-22.44,3.49,1.65-13.06,27.68-4.03-1.9-3.98-29.04-.08-.04-10.48,22.21-3.49-1.65,13.06-27.68,3.91,1.85Z" style="fill: #1d1d1b;"/>
      <path d="M442.47,590.67l1.72,32.81-4.27-1.42-.28-9.8-12.29-4.07-6.15,7.67-3.95-1.31,20.94-25.3,4.27,1.41Zm-2.97,17.94l-.35-15.15-.08-.03-9.41,11.92,9.85,3.26Z" style="fill: #1d1d1b;"/>
      <path d="M460.6,595.74l-5.74,26.56,15.84,3.42-.72,3.35-19.82-4.28,6.46-29.92,3.98,.86Z" style="fill: #1d1d1b;"/>
      <path d="M507.09,606.13c-1.3-1.06-3.01-1.64-5.12-1.75-.86-.05-1.7,0-2.54,.12-.84,.13-1.59,.37-2.25,.74-.66,.36-1.21,.87-1.63,1.52-.42,.65-.66,1.47-.71,2.47-.05,.94,.19,1.72,.71,2.34,.53,.61,1.24,1.13,2.15,1.55,.91,.42,1.94,.78,3.1,1.09,1.16,.31,2.33,.63,3.53,.98,1.2,.35,2.37,.75,3.52,1.2,1.15,.45,2.17,1.02,3.06,1.73,.89,.71,1.59,1.57,2.09,2.6,.5,1.03,.72,2.3,.64,3.81-.09,1.63-.52,3-1.31,4.12-.79,1.12-1.77,2.01-2.95,2.68-1.18,.67-2.49,1.13-3.92,1.38s-2.84,.34-4.24,.27c-1.71-.09-3.32-.39-4.82-.9-1.51-.51-2.81-1.23-3.92-2.16-1.11-.93-1.96-2.09-2.56-3.48-.6-1.39-.85-3.01-.75-4.87l3.85,.2c-.07,1.29,.12,2.41,.57,3.36,.45,.95,1.07,1.75,1.85,2.4,.78,.64,1.71,1.14,2.78,1.48,1.07,.34,2.18,.55,3.31,.61,.91,.05,1.84,.01,2.77-.11,.94-.12,1.79-.37,2.55-.74s1.39-.91,1.89-1.6c.5-.69,.77-1.59,.83-2.7,.06-1.06-.18-1.92-.7-2.61-.52-.69-1.24-1.26-2.14-1.72-.9-.46-1.94-.85-3.09-1.17-1.16-.32-2.33-.65-3.53-.98-1.2-.34-2.37-.71-3.53-1.13-1.15-.42-2.17-.95-3.07-1.58-.9-.63-1.6-1.43-2.11-2.39-.51-.96-.72-2.13-.65-3.53,.08-1.54,.47-2.86,1.15-3.95,.69-1.09,1.57-1.98,2.65-2.65,1.08-.67,2.3-1.15,3.64-1.44s2.72-.39,4.12-.32c1.57,.08,3.01,.35,4.34,.79,1.32,.44,2.47,1.09,3.44,1.94,.97,.85,1.72,1.9,2.24,3.14,.52,1.24,.77,2.71,.73,4.39l-3.85-.2c-.11-2.21-.82-3.84-2.12-4.9Z" style="fill: #1d1d1b;"/>
      <path d="M542.58,629.14c-1.95,2.1-4.85,3.28-8.69,3.54-3.93,.27-7.07-.45-9.41-2.17-2.34-1.72-3.64-4.61-3.92-8.69l-1.34-19.5,4.06-.28,1.34,19.5c.19,2.74,1.06,4.76,2.61,6.07,1.55,1.31,3.69,1.87,6.43,1.69,2.59-.18,4.52-1.02,5.78-2.52,1.26-1.5,1.79-3.62,1.6-6.36l-1.34-19.5,4.06-.28,1.34,19.5c.27,3.9-.57,6.91-2.52,9Z" style="fill: #1d1d1b;"/>
      <path d="M563.82,597.04c2.86-.58,5.23-.34,7.13,.73,1.9,1.07,3.09,2.83,3.59,5.26,.37,1.82,.28,3.5-.26,5.04-.55,1.54-1.68,2.75-3.39,3.62l.02,.08c.9,0,1.67,.13,2.29,.41,.62,.28,1.15,.66,1.59,1.14,.43,.48,.8,1.04,1.09,1.68,.29,.64,.55,1.32,.78,2.03,.2,.72,.4,1.45,.58,2.2,.18,.75,.4,1.48,.66,2.18,.26,.71,.56,1.37,.91,1.98,.34,.62,.78,1.13,1.3,1.55l-4.45,.91c-.34-.25-.62-.63-.83-1.15-.21-.51-.39-1.09-.55-1.75-.16-.65-.34-1.35-.52-2.1-.18-.75-.42-1.47-.71-2.17-.26-.71-.54-1.37-.84-1.99-.3-.62-.69-1.14-1.15-1.56-.46-.42-1.02-.71-1.67-.89-.65-.17-1.46-.16-2.44,.04l-9.74,1.99,2.61,12.81-3.99,.81-6.11-29.99,14.11-2.87Zm3.61,13.44c.81-.31,1.49-.73,2.04-1.27,.55-.53,.94-1.18,1.18-1.95,.24-.76,.25-1.69,.03-2.78-.31-1.51-.98-2.66-2.02-3.44-1.03-.78-2.49-.98-4.37-.6l-9.91,2.02,2.13,10.46,8.31-1.7c.92-.19,1.79-.44,2.6-.75Z" style="fill: #1d1d1b;"/>
      <path d="M605.09,617c-1.46,1.22-3.05,2.11-4.76,2.67-2.17,.71-4.25,.95-6.22,.71-1.97-.24-3.78-.84-5.42-1.81-1.64-.97-3.06-2.23-4.27-3.79-1.2-1.56-2.12-3.29-2.74-5.19-.7-2.12-1.07-4.23-1.11-6.34-.05-2.11,.27-4.07,.96-5.89,.68-1.82,1.74-3.44,3.19-4.86,1.44-1.42,3.32-2.51,5.63-3.27,1.57-.52,3.12-.82,4.64-.91,1.52-.09,2.96,.07,4.31,.5,1.36,.43,2.61,1.12,3.75,2.08,1.14,.96,2.13,2.26,2.97,3.88l-3.87,1.27c-.56-1.05-1.22-1.89-2-2.52-.78-.63-1.63-1.08-2.56-1.35-.93-.27-1.92-.37-2.97-.31-1.05,.06-2.12,.27-3.2,.62-1.76,.58-3.16,1.43-4.19,2.55-1.03,1.12-1.76,2.39-2.18,3.81-.42,1.42-.58,2.93-.48,4.53,.11,1.61,.41,3.18,.92,4.73,.5,1.52,1.19,2.91,2.09,4.16,.89,1.26,1.93,2.28,3.13,3.08,1.19,.8,2.51,1.31,3.96,1.54,1.45,.23,2.98,.08,4.61-.45,1.52-.5,2.78-1.18,3.79-2.06s1.77-1.87,2.29-2.99c.52-1.12,.79-2.32,.82-3.61,.03-1.29-.2-2.59-.69-3.9l-9.29,3.05-1.07-3.26,12.75-4.18,5.02,15.31-2.44,.8-2.21-3.29c-.64,1.89-1.7,3.45-3.16,4.67Z" style="fill: #1d1d1b;"/>
      <path d="M627.65,574.47l1.46,3.1-15.44,7.24,4.13,8.81,14.4-6.75,1.46,3.1-14.4,6.75,4.5,9.59,15.56-7.3,1.46,3.11-19.25,9.03-13-27.7,19.13-8.97Z" style="fill: #1d1d1b;"/>
      <path d="M644.06,564.64c2.48-1.53,4.79-2.13,6.94-1.77,2.15,.35,3.88,1.58,5.19,3.7,.98,1.58,1.47,3.19,1.49,4.82,.02,1.63-.62,3.16-1.93,4.57l.05,.07c.84-.32,1.61-.46,2.29-.41,.68,.05,1.31,.22,1.89,.52,.57,.3,1.11,.7,1.6,1.2,.49,.5,.97,1.04,1.44,1.63,.44,.6,.88,1.22,1.31,1.86,.43,.64,.89,1.25,1.38,1.82,.49,.57,1,1.09,1.54,1.55,.54,.46,1.12,.79,1.76,1.01l-3.86,2.39c-.41-.12-.8-.38-1.17-.79-.37-.41-.75-.89-1.12-1.45-.38-.56-.78-1.15-1.21-1.8-.43-.64-.9-1.24-1.41-1.8-.49-.57-.98-1.1-1.48-1.58-.5-.48-1.04-.84-1.62-1.07-.58-.23-1.2-.32-1.87-.25-.67,.06-1.43,.35-2.28,.88l-8.46,5.23,6.88,11.11-3.46,2.14-16.1-26.02,12.25-7.58Zm8.04,11.36c.65-.57,1.14-1.2,1.47-1.89,.33-.69,.47-1.43,.43-2.23-.04-.8-.35-1.67-.94-2.62-.81-1.31-1.84-2.16-3.08-2.53-1.24-.38-2.67-.06-4.3,.95l-8.6,5.32,5.61,9.08,7.22-4.46c.8-.5,1.53-1.03,2.18-1.6Z" style="fill: #1d1d1b;"/>
      <path d="M683.87,573.73l-3.2,2.52-7.74-9.84-20.48-6.91,3.81-2.99,16.22,5.79-1.96-16.99,3.64-2.86,1.98,21.45,7.73,9.84Z" style="fill: #1d1d1b;"/>
    </g>
  </g>
  <path d="M2.06,664.58c-.68,0-1.34-.33-1.73-.94-.61-.95-.34-2.23,.61-2.84l238.66-153.77c.96-.61,2.23-.33,2.84,.61,.61,.95,.34,2.23-.61,2.84L3.17,664.26c-.34,.22-.73,.33-1.11,.33Z" style="fill: #1d1d1b;"/>
  <path d="M1028.65,664.58c-.38,0-.77-.11-1.11-.33l-238.66-153.77c-.95-.61-1.23-1.88-.61-2.84,.62-.95,1.88-1.22,2.84-.61l238.66,153.77c.95,.61,1.23,1.88,.61,2.84-.39,.61-1.05,.94-1.73,.94Z" style="fill: #1d1d1b;"/>
  <path d="M838.43,751.26c-.35,0-.7-.09-1.02-.27-85.62-49.12-172.73-79.69-258.91-90.87-68.92-8.94-137.42-5.57-203.59,10.02-112.71,26.56-180.45,80.13-181.12,80.67-.89,.71-2.18,.57-2.89-.32-.71-.89-.57-2.18,.32-2.89,.68-.54,69-54.61,182.55-81.41,66.67-15.74,135.68-19.15,205.12-10.17,86.76,11.23,174.43,41.98,260.57,91.4,.98,.56,1.32,1.82,.76,2.8-.38,.66-1.07,1.03-1.78,1.03Z" style="fill: #1d1d1b;"/>
  <g>
    <path d="M335.35,759.86v1.48c.21,8.17,.85,9.86,4.46,11.24,2.76,1.06,11.03,1.59,25.45,1.59,9.23,0,18.67-.64,22.7-1.59,4.56-.95,6.79-4.45,6.79-10.5s-1.38-8.91-5.09-10.18q-3.5-1.17-38.08-1.17c-18.67,0-25.56-5.3-25.56-19.73,0-6.36,1.8-11.03,5.3-13.9,3.61-2.97,7.32-4.14,15.38-5.09,5.2-.64,14.74-1.06,21.53-1.06,15.91,0,23.76,1.48,28.64,5.41,4.03,3.18,5.2,6.68,5.3,15.8h-9.44v-1.06c0-6.9-1.06-8.7-5.94-10.29-3.5-1.17-10.08-1.8-18.99-1.8-26.73,0-32.14,2.02-32.14,12.09,0,6.47,1.27,8.59,6.05,9.97,3.29,.85,8.8,1.38,17.08,1.49q5.2,0,24.08,.11c10.29,0,15.17,1.7,18.46,6.47,2.12,2.97,3.08,6.89,3.08,12.2,0,8.91-2.65,14.32-8.27,17.18-5.3,2.55-15.59,3.61-36.91,3.61-16.12,0-22.27-.85-26.62-3.5-4.88-3.08-6.47-6.79-6.47-15.59,0-.21,0-1.91,.11-3.18h9.12Z" style="fill: #2b388a;"/>
    <path d="M425.83,711.18v70.75h-9.44v-70.75h9.44Z" style="fill: #2b388a;"/>
    <path d="M521.08,757.74c-.53,13.58-1.06,16.23-4.35,19.41-4.14,3.92-10.82,4.99-32.67,4.99-27.9,0-35.32-1.06-39.99-5.62-4.03-3.92-5.51-11.77-5.51-28.85,0-19.62,1.7-28,6.58-31.93,3.39-2.65,7.42-3.61,18.03-4.24,4.45-.32,13.79-.53,19.41-.53,21.74,0,29.27,1.38,33.84,6.05,3.18,3.18,3.61,5.41,3.82,17.61h-8.8v-2.44c-.11-7-1.17-9.12-5.2-10.71-3.5-1.27-11.77-2.02-24.08-2.02-18.67,0-27.26,.95-30.12,3.18-2.65,2.23-3.92,9.02-3.92,21.32,0,5.83,.64,17.18,1.06,20.68,.85,5.41,3.18,7.64,9.12,8.17,4.67,.53,14.32,.85,22.91,.85,7,0,19.3-.53,22.06-.95,7.11-1.06,8.59-2.97,8.59-11.77l.11-3.18h9.12Z" style="fill: #2b388a;"/>
    <path d="M614.32,716.69c2.97,2.86,4.24,6.47,4.99,14,.42,3.61,.74,10.71,.74,16.12,0,17.39-1.49,25.35-5.41,29.59-4.14,4.35-11.99,5.73-33.62,5.73-18.88,0-30.97-.53-36.27-1.7-5.73-1.27-10.29-5.73-11.56-11.46-1.17-4.67-1.59-11.24-1.59-22.7,0-18.99,1.7-26.52,6.89-30.55,3.61-2.65,7.21-3.61,16.87-4.24,4.24-.21,16.44-.53,22.59-.53,24.18,0,31.82,1.17,36.38,5.73Zm-69.47,6.26c-2.55,2.33-3.61,9.02-3.61,22.59,0,15.7,.74,21.85,2.97,24.29,1.91,2.02,4.77,2.76,12.62,3.29,3.82,.21,15.7,.53,20.26,.53,10.39,0,20.15-.53,24.92-1.38,4.14-.74,6.36-2.97,7.21-7.21,.64-3.82,1.17-11.46,1.17-18.03,0-7.96-.42-16.44-1.06-19.62-.64-4.03-3.18-6.15-7.96-6.9-5.41-.85-10.82-1.06-28.96-1.06s-24.82,.95-27.58,3.5Z" style="fill: #2b388a;"/>
    <path d="M708.09,711.18v8.27h-35.32v62.47h-9.44v-62.47h-35.53v-8.27h80.29Z" style="fill: #2b388a;"/>
  </g>
  <g>
    <path d="M419.22,697.78h-3.38l8.95-24.66h3.88l8.65,24.66h-3.53l-2.54-7.36h-9.4l-2.64,7.36Zm3.48-9.99h7.61l-3.58-10.79-4.03,10.79Z" style="fill: #2b388a;"/>
    <path d="M440.85,682.61h-2.44v-2.58h2.44v-3.03c0-1.23,.41-2.22,1.24-2.98,.56-.53,1.12-.83,1.67-.9s.97-.1,1.27-.1c.5,0,1,.05,1.49,.15v2.39c-.46-.07-.8-.1-.99-.1-.63,0-1.09,.15-1.39,.45s-.45,.81-.45,1.54v2.59h2.83v2.58h-2.83v15.17h-2.84v-15.17Z" style="fill: #2b388a;"/>
    <path d="M450.24,682.61h-2.44v-2.58h2.44v-3.03c0-1.23,.41-2.22,1.24-2.98,.56-.53,1.12-.83,1.67-.9s.97-.1,1.27-.1c.5,0,1,.05,1.49,.15v2.39c-.46-.07-.8-.1-.99-.1-.63,0-1.09,.15-1.39,.45-.3,.3-.45,.81-.45,1.54v2.59h2.83v2.58h-2.83v15.17h-2.83v-15.17Z" style="fill: #2b388a;"/>
    <path d="M461.68,676.64h-2.83v-3.53h2.83v3.53Zm0,21.13h-2.83v-17.75h2.83v17.75Z" style="fill: #2b388a;"/>
    <path d="M466.4,673.11h2.83v24.66h-2.83v-24.66Z" style="fill: #2b388a;"/>
    <path d="M487.73,694.99c0,.27,.15,.51,.45,.75,.3,.23,.65,.35,1.04,.35,.13,0,.3-.03,.5-.1v2.14l-2.39,.3c-1.63-.43-2.44-1.29-2.44-2.58-1.33,.99-2.11,1.56-2.34,1.69-1.03,.6-2.14,.9-3.33,.9-4.11,0-6.17-1.86-6.17-5.57,0-1.33,.38-2.39,1.14-3.18,.6-.63,1.46-1.11,2.59-1.44,1.13-.33,2.38-.56,3.75-.7,1.38-.13,2.28-.24,2.71-.32s.79-.26,1.07-.52c.28-.26,.42-.55,.42-.84v-2.09c-.1-.56-.57-1.02-1.42-1.37-.85-.35-1.78-.52-2.81-.52-.3,.03-.51,.05-.65,.05-1.36,0-2.3,.43-2.84,1.29-.33,.53-.5,1.19-.5,1.99h-2.69l.1-1.59c.17-.63,.45-1.21,.84-1.74,.56-.76,1.27-1.34,2.11-1.74,.84-.4,1.9-.65,3.16-.75,.6,0,1.17,0,1.72,.03s1.29,.13,2.24,.35c.94,.22,1.8,.61,2.56,1.19,.76,.58,1.14,1.3,1.14,2.16v11.88Zm-2.93-6.06c-.66,.27-2.25,.6-4.77,.99-1.09,.17-1.89,.37-2.39,.62s-.9,.6-1.22,1.04c-.31,.45-.47,.89-.47,1.32,0,1.06,.3,1.84,.9,2.34,.6,.5,1.34,.75,2.24,.75,1.62,0,3.05-.51,4.28-1.54,.96-.8,1.44-1.44,1.44-1.94v-3.58Z" style="fill: #2b388a;"/>
    <path d="M496.18,680.02h2.83v2.58h-2.83v12.13c0,.7,.51,1.04,1.54,1.04,.4,0,.83-.05,1.29-.15v2.54c-.4,.07-.76,.12-1.07,.17-.32,.05-.72,.07-1.22,.07-.33,0-.77-.03-1.32-.1s-1.03-.36-1.44-.9-.62-1.06-.62-1.59v-13.23h-2.44v-2.58h2.44v-4.82h2.84v4.82Z" style="fill: #2b388a;"/>
    <path d="M504.19,689.87v1.34c.1,.76,.43,1.61,1,2.53,.53,.66,1.03,1.16,1.49,1.49,.7,.46,1.52,.7,2.49,.7,1.52,0,2.7-.48,3.53-1.44,.33-.4,.75-1.16,1.24-2.29h2.84c-.13,.66-.28,1.23-.45,1.69-.27,.66-.65,1.29-1.14,1.89-.66,.86-1.5,1.52-2.51,1.96-1.01,.45-2.16,.67-3.46,.67-2.62,0-4.71-.95-6.27-2.83-.6-.76-1.04-1.73-1.34-2.91-.3-1.18-.45-2.44-.45-3.8s.18-2.59,.55-3.8,.91-2.21,1.64-3.01c.86-.93,1.78-1.62,2.76-2.06,.98-.45,2-.67,3.06-.67,.33,.03,.58,.05,.75,.05,1.06,0,2.06,.24,2.98,.72,.93,.48,1.69,1.09,2.29,1.81,.86,1.16,1.41,2.31,1.64,3.46,.23,1.14,.35,2.64,.35,4.5h-12.98Zm9.9-2.49c0-.79-.14-1.6-.42-2.41-.28-.81-.57-1.38-.87-1.71-.17-.4-.55-.75-1.14-1.07-.6-.31-1.24-.47-1.94-.47-.27-.03-.46-.05-.6-.05-.66,0-1.28,.12-1.84,.37s-1.04,.66-1.44,1.22c-.3,.27-.63,.81-.99,1.64-.37,.83-.55,1.66-.55,2.49h9.8Z" style="fill: #2b388a;"/>
    <path d="M535.36,673.11v24.66h-2.49v-2.09c-.33,.4-.7,.78-1.09,1.14-.4,.37-.84,.7-1.34,1-.73,.46-1.74,.7-3.03,.7s-2.52-.25-3.58-.75c-1.29-.63-2.33-1.65-3.11-3.06-.78-1.41-1.17-2.94-1.17-4.6,0-.23,0-.49-.03-.77s-.02-.47-.02-.57c0-1.39,.2-2.72,.6-3.98,.4-1.26,.99-2.29,1.76-3.08,.78-.79,1.61-1.37,2.49-1.72s1.77-.52,2.66-.52c.79,0,1.53,.11,2.21,.32,.68,.22,1.23,.47,1.67,.77,.76,.5,1.29,1.03,1.59,1.59v-9.05h2.88Zm-7.46,22.72c1.49,0,2.64-.65,3.43-1.94,.43-.73,.74-1.46,.92-2.19,.18-.73,.27-1.54,.27-2.44,0-1.13-.14-2.15-.42-3.08-.28-.93-.6-1.64-.97-2.14-.79-1.13-1.96-1.69-3.48-1.69-.73,0-1.43,.14-2.09,.42-.66,.28-1.21,.72-1.64,1.32-.83,1.16-1.24,2.77-1.24,4.82,0,.99,.12,1.95,.37,2.86,.25,.91,.61,1.69,1.07,2.34,.46,.65,1.01,1.09,1.64,1.34,.63,.25,1.34,.37,2.14,.37Z" style="fill: #2b388a;"/>
    <path d="M577.73,673.11h3.53l-6.31,24.66h-3.48l-5.62-20.09-5.57,20.09h-3.48l-6.22-24.66h3.53l4.52,19.84,5.52-19.84h3.43l5.47,19.84,4.67-19.84Z" style="fill: #2b388a;"/>
    <path d="M586.82,676.64h-2.83v-3.53h2.83v3.53Zm0,21.13h-2.83v-17.75h2.83v17.75Z" style="fill: #2b388a;"/>
    <path d="M595.03,680.02h2.83v2.58h-2.83v12.13c0,.7,.51,1.04,1.54,1.04,.4,0,.83-.05,1.29-.15v2.54c-.4,.07-.76,.12-1.07,.17-.32,.05-.72,.07-1.22,.07-.33,0-.77-.03-1.32-.1s-1.03-.36-1.44-.9-.62-1.06-.62-1.59v-13.23h-2.44v-2.58h2.44v-4.82h2.84v4.82Z" style="fill: #2b388a;"/>
    <path d="M601.04,673.11h2.83v9.05c.3-.36,.68-.73,1.14-1.09,.6-.46,1.27-.84,2.01-1.12,.75-.28,1.5-.42,2.26-.42,.56,0,1.04,.04,1.44,.12,.4,.08,.88,.24,1.44,.47,1.09,.4,1.91,1.13,2.44,2.19,.4,.83,.55,1.49,.45,1.99v13.47h-2.83v-12.08c0-1-.18-1.77-.55-2.34-.23-.36-.55-.63-.95-.8-.9-.36-1.66-.55-2.29-.55-.3,0-.53,.02-.7,.05-.8,.17-1.74,.68-2.83,1.54-.37,.36-.63,.71-.8,1.04-.17,.33-.25,.86-.25,1.59v11.54h-2.83v-24.66Z" style="fill: #2b388a;"/>
  </g>
</svg>