<?xml version="1.0" encoding="utf-8"?>
<!-- Generator: Adobe Illustrator 22.0.1, SVG Export Plug-In . SVG Version: 6.00 Build 0)  -->
<svg version="1.1" id="Layer_1" xmlns="http://www.w3.org/2000/svg" xmlns:xlink="http://www.w3.org/1999/xlink" x="0px" y="0px"
	 viewBox="0 0 294.8 100.2" style="enable-background:new 0 0 294.8 100.2;" xml:space="preserve">
<style type="text/css">
	.st0{fill:url(#XMLID_2_);}
	.st1{fill:#FFFFFF;}
	.st2{fill:#124B8F;}
	.st3{fill:#AEB0B2;}
</style>
<radialGradient id="XMLID_2_" cx="-42.6869" cy="197.7925" r="80.6984" gradientTransform="matrix(0.964 0 0 -0.964 -7.6758 232.6953)" gradientUnits="userSpaceOnUse">
	<stop  offset="0.8009" style="stop-color:#AEB0B2"/>
	<stop  offset="0.8492" style="stop-color:#B4B5B8"/>
	<stop  offset="0.9234" style="stop-color:#C4C5C7"/>
	<stop  offset="1" style="stop-color:#DCDDDF"/>
</radialGradient>
<path id="XMLID_186_" class="st0" d="M50.8,68.1c0,4.3-3.6,7.9-8.3,7.9H11.2c-4.5,0-8.3-3.6-8.3-7.9V10.9C2.9,6.6,6.5,3,11.2,3h31.2
	c4.5,0,8.3,3.6,8.3,7.9C50.8,10.8,50.8,68.1,50.8,68.1z"/>
<path id="XMLID_185_" class="st1" d="M12.5,14.6c0.1,0.1,0.2,0.1,0.2,0.1h6c0.3,0,0.5-0.2,0.5-0.5v-1.4c0-0.3-0.2-0.5-0.5-0.5h-5.5
	c-0.3,0-0.6,0.3-0.7,0.6l-0.2,1.4C12.4,14.4,12.4,14.5,12.5,14.6z"/>
<path id="XMLID_184_" class="st1" d="M12.2,22.5c-0.1,0.1-0.1,0.2-0.1,0.4l0.1,1.5c0,0.3,0.4,0.6,0.7,0.6h8c0.1,0,0.2,0,0.3-0.1
	c0.1-0.1,0.1-0.2,0-0.3l-0.3-1.5c-0.1-0.4-0.5-0.7-1-0.7h-7.3C12.4,22.4,12.3,22.4,12.2,22.5z"/>
<path id="XMLID_183_" class="st1" d="M16.4,3c-0.3,0-0.7,0.3-0.9,0.6L15,4.8v0.1h5c0.3,0,0.7-0.3,0.8-0.6l0.5-1.2c0-0.1,0-0.1,0-0.1
	l0,0C21.2,3,16.4,3,16.4,3z"/>
<path id="XMLID_182_" class="st1" d="M13.4,9.7h5.5c0.3,0,0.6-0.2,0.6-0.5l0.2-1.3c0-0.1,0-0.2-0.1-0.2c0-0.1-0.1-0.1-0.2-0.1h-5
	c-0.3,0-0.7,0.3-0.8,0.6l-0.4,1.3c0,0.1,0,0.2,0,0.2C13.3,9.7,13.3,9.7,13.4,9.7z"/>
<path id="XMLID_181_" class="st1" d="M25.7,71.5c-0.1-0.1-0.3-0.1-0.4-0.1h-4.2c-0.8,0-1.8,0.7-2.2,1.4l-1.2,2.3
	c-0.2,0.4-0.2,0.6-0.1,0.7c0.1,0.1,0.3,0.2,0.5,0.2h4c0.8,0,1.8-0.7,2.2-1.4l1.2-2.3C25.8,71.9,25.8,71.6,25.7,71.5z"/>
<path id="XMLID_180_" class="st1" d="M12.6,17.4c-0.3,0-0.5,0.2-0.5,0.5v1.4c0,0.3,0.2,0.5,0.5,0.5h6.9c0.1,0,0.2,0,0.3-0.1
	c0.1-0.1,0.1-0.1,0.1-0.2c0,0,0,0,0-0.1L19.8,18c-0.1-0.3-0.4-0.6-0.7-0.6C19.1,17.4,12.6,17.4,12.6,17.4z"/>
<path id="XMLID_179_" class="st1" d="M27,64.4h-4.8c-0.7,0-1.2,0.5-1.3,1.2l-0.3,2.2c0,0.3,0,0.5,0.2,0.7s0.4,0.3,0.7,0.3h4.4
	c0.7,0,1.3-0.6,1.4-1.2l0.5-2.2c0.1-0.3,0-0.5-0.1-0.7C27.4,64.5,27.2,64.4,27,64.4z"/>
<path id="XMLID_178_" class="st1" d="M28.4,58.1c-0.2-0.2-0.4-0.3-0.7-0.3h-6c-0.6,0-1.1,0.5-1.1,1v2.1c0,0.6,0.5,1,1.1,1h5.6
	c0.6,0,1.1-0.5,1.2-1.1l0.2-2.1C28.6,58.5,28.5,58.3,28.4,58.1z"/>
<path id="XMLID_177_" class="st1" d="M13,29.9c0.1,0.4,0.5,0.8,1,0.8h8.4c0.1,0,0.2,0,0.3-0.1c0.1-0.1,0.1-0.2,0-0.4l-0.6-1.6
	c-0.1-0.4-0.7-0.8-1.1-0.8h-8c-0.2,0-0.3,0-0.3,0.1c-0.1,0.1-0.1,0.2-0.1,0.4L13,29.9z"/>
<path id="XMLID_176_" class="st1" d="M27.2,46.1c-0.1-0.5-0.7-1-1.2-1h-7.8c-0.1,0-0.3,0-0.4,0.2c-0.1,0.1-0.1,0.3-0.1,0.5l0.5,1.9
	c0.1,0.5,0.8,1,1.2,1H27c0.2,0,0.4-0.1,0.5-0.2s0.2-0.3,0.1-0.5L27.2,46.1L27.2,46.1z"/>
<path id="XMLID_175_" class="st1" d="M27.2,51.4h-7c-0.2,0-0.4,0.1-0.5,0.2s-0.2,0.3-0.1,0.6l0.5,2c0.1,0.5,0.7,1.1,1.7,1.1h6
	c0.2,0,0.9-0.5,0.9-0.9l-0.2-2C28.3,51.7,27.8,51.4,27.2,51.4z"/>
<path id="XMLID_174_" class="st1" d="M16.4,41.4c0.2,0.5,0.8,1,1.2,1l8.1,0.1c0.1,0,0.3,0,0.4-0.1s0.1-0.3,0.1-0.5l-0.5-1.8
	c-0.1-0.5-0.7-1-1.2-1L16.1,39c-0.1,0-0.3,0-0.3,0.1c-0.1,0.1-0.1,0.3,0,0.4L16.4,41.4z"/>
<path id="XMLID_173_" class="st1" d="M14.5,35.5c0.1,0.5,0.7,0.9,1.2,0.9h8.4c0.1,0,0.2,0,0.3-0.1c0-0.1,0.1-0.1,0.1-0.2
	s0-0.1,0-0.2L24,34.2c-0.1-0.5-0.7-0.9-1.2-0.9h-8.4c-0.1,0-0.2,0-0.3,0.1s-0.1,0.2,0,0.4L14.5,35.5z"/>
<path id="XMLID_172_" class="st2" d="M42.9,3H26.3c-2,4.1-4,9.2-4.3,14.6c-0.6,8.4,1.4,15.4,3.6,22l2,6.2c2,6,3.9,11.4,3.5,18.6
	c-0.3,4-1.9,8.5-4,11.6h15.8c4.5,0,8.3-3.6,8.3-7.9V10.8C51.1,6.5,47.4,3,42.9,3z"/>
<g id="XMLID_166_">
	<path id="XMLID_167_" class="st2" d="M281.6,6.4c0-2.7,2-4.8,4.6-4.8s4.6,2.1,4.6,4.8c0,2.7-2,4.8-4.6,4.8
		C283.6,11.2,281.6,9.1,281.6,6.4z M290.1,6.4c0-2.3-1.7-4.2-3.9-4.2s-3.9,1.9-3.9,4.2s1.7,4.2,3.9,4.2S290.1,8.7,290.1,6.4z
		 M284.5,3.6h1.8c1.2,0,1.8,0.6,1.8,1.4s-0.5,1.3-1.2,1.4l1.2,2.4h-0.8l-1.2-2.2H285v2.3h-0.7L284.5,3.6L284.5,3.6z M286.2,6.1
		c0.7,0,1.2-0.2,1.2-0.9c0-0.6-0.5-0.9-1.2-0.9h-1.1V6L286.2,6.1L286.2,6.1z"/>
</g>
<g id="XMLID_16_">
	<path id="XMLID_150_" class="st3" d="M5.1,98.6H2.9l4.2-14.7h2.2l4.2,14.7h-2.3l-1-3.5H6L5.1,98.6z M9.3,91.2
		c-0.5-1.6-0.8-2.9-1.1-4.2l0,0c-0.3,1.4-0.7,2.6-1.2,4.2L6.5,93h3.4L9.3,91.2z"/>
	<path id="XMLID_137_" class="st3" d="M15.6,83.9h3.5c3.9,0,6.4,1.9,6.4,7.2c0,5.4-2.5,7.3-6.4,7.3h-3.5
		C15.6,98.4,15.6,83.9,15.6,83.9z M19.4,96.4c2.7,0,3.8-1.4,3.8-5.3c0-3.6-1.2-5.1-3.8-5.1H18v10.4L19.4,96.4L19.4,96.4z"/>
	<path id="XMLID_135_" class="st3" d="M26.4,83.9h2.3l1.9,7.4c0.4,1.5,0.7,2.7,1.1,4.1l0,0c0.3-1.4,0.7-2.6,1.1-4.1l1.9-7.4h2.2
		l-4.2,14.7h-2.2L26.4,83.9z"/>
	<path id="XMLID_132_" class="st3" d="M39.2,98.6h-2.3l4.2-14.7h2.2l4.2,14.7h-2.3l-1-3.5h-4.3L39.2,98.6z M43.4,91.2
		c-0.5-1.6-0.8-2.9-1.1-4.2l0,0c-0.3,1.4-0.7,2.6-1.2,4.2L40.6,93h3.3L43.4,91.2z"/>
	<path id="XMLID_130_" class="st3" d="M49.7,83.9h2.5l3.9,7.7c0.5,1,0.8,1.4,1.2,2.5l0,0V83.9h2.1v14.6h-2.1L53,90.3
		c-0.5-1-0.8-1.4-1.2-2.5l0,0v10.7h-2.1C49.7,98.5,49.7,83.9,49.7,83.9z"/>
	<path id="XMLID_128_" class="st3" d="M61.9,91.2c0-5,2.2-7.5,5.4-7.5c3,0,4.2,1.9,4.7,4.8l-2.2,0.4c-0.4-2.1-1.1-3.1-2.6-3.1
		c-2,0-3.1,1.8-3.1,5.4c0,3.6,1.1,5.5,3.1,5.5c1.5,0,2.3-0.9,2.8-3.3l2.1,0.4c-0.6,2.9-1.9,5-4.9,5C64.1,98.8,61.9,96.3,61.9,91.2z"
		/>
	<path id="XMLID_126_" class="st3" d="M74.7,83.9H77v14.6h-2.3V83.9z"/>
	<path id="XMLID_124_" class="st3" d="M80.1,83.9h2.5l3.9,7.7c0.5,1,0.8,1.4,1.2,2.5l0,0V83.9h2.2v14.6h-2.1l-4.3-8.2
		c-0.5-1-0.8-1.4-1.2-2.5l0,0v10.7h-2.1V83.9H80.1z"/>
	<path id="XMLID_122_" class="st3" d="M92.4,91.2c0-4.8,2-7.5,5.4-7.5c2.7,0,4.1,1.6,4.7,4.8l-2.1,0.5c-0.5-2.2-1.2-3.1-2.7-3.1
		c-1.7,0-3.1,1.4-3.1,5.3c0,4,1.2,5.5,3.2,5.5c1.6,0,2.6-1.1,2.8-3.5h-2.4v-1.9h4.5v7.2H101v-1.9l0,0c-0.4,1.1-1.5,2.2-3.4,2.2
		C94.3,98.8,92.4,95.9,92.4,91.2z"/>
	<path id="XMLID_120_" class="st3" d="M109.3,91.2c0-4.8,2-7.5,5.4-7.5c2.7,0,4.1,1.6,4.7,4.8l-2.1,0.5c-0.5-2.2-1.2-3.1-2.7-3.1
		c-1.7,0-3.1,1.4-3.1,5.3c0,4,1.2,5.5,3.2,5.5c1.6,0,2.6-1.1,2.8-3.5h-2.4v-1.9h4.5v7.2h-1.7v-1.9l0,0c-0.4,1.1-1.5,2.2-3.4,2.2
		C111.3,98.8,109.3,95.9,109.3,91.2z"/>
	<path id="XMLID_118_" class="st3" d="M122.5,83.9h2.3v12.6h5.6v2.1h-7.9V83.9z"/>
	<path id="XMLID_115_" class="st3" d="M131.4,91.2c0-5.1,2.4-7.6,5.5-7.6s5.5,2.5,5.5,7.6s-2.4,7.6-5.5,7.6S131.4,96.3,131.4,91.2z
		 M140.3,91.2c0-3.6-1.2-5.4-3.2-5.4s-3.2,1.8-3.2,5.4c0,3.6,1.2,5.5,3.2,5.5C139,96.7,140.3,94.7,140.3,91.2z"/>
	<path id="XMLID_111_" class="st3" d="M145,83.9h4.6c2.5,0,4.5,1,4.5,3.6c0,2.1-1.2,3-2.2,3.4l0,0c1.3,0.3,2.6,1.2,2.6,3.6
		c0,2.8-2,3.9-4.6,3.9H145L145,83.9L145,83.9z M149.4,90c1.6,0,2.4-0.5,2.4-2s-0.7-2.1-2.4-2.1h-2.2V90H149.4z M149.7,96.5
		c1.7,0,2.5-0.8,2.5-2.3c0-1.7-1-2.2-2.7-2.2h-2.2v4.5H149.7z"/>
	<path id="XMLID_108_" class="st3" d="M157.6,98.6h-2.1l4.2-14.7h2.2l4.2,14.7h-2.4l-1-3.5h-4.2L157.6,98.6z M162,91.2
		c-0.5-1.6-0.8-2.9-1.1-4.2l0,0c-0.3,1.4-0.7,2.6-1.2,4.2l-0.5,1.8h3.3L162,91.2z"/>
	<path id="XMLID_106_" class="st3" d="M168.2,83.9h2.3v12.6h5.6v2.1h-7.9L168.2,83.9L168.2,83.9z"/>
	<path id="XMLID_104_" class="st3" d="M181.3,95.2l1.9-1c0.7,1.4,1.6,2.4,3.2,2.4c1.4,0,2.3-0.7,2.3-1.9c0-1.4-1.3-2.1-2.8-2.8
		c-1.9-0.9-4.1-1.7-4.1-4.6c0-2.3,1.8-3.8,4.3-3.8c2.4,0,3.8,1.3,4.6,3.2l-1.9,1c-0.6-1.2-1.3-2.1-2.7-2.1c-1.2,0-1.9,0.7-1.9,1.7
		c0,1.4,1.2,2,2.7,2.7c1.9,0.9,4.2,1.8,4.2,4.6c0,2.1-1.6,4-4.6,4C183.9,98.8,182.2,97.2,181.3,95.2z"/>
	<path id="XMLID_101_" class="st3" d="M193.5,83.9h4.2c2.7,0,4.8,1.2,4.8,4.5c0,3.6-2.3,4.6-4.9,4.6h-1.8v5.5h-2.3V83.9z M197.8,91
		c1.7,0,2.6-0.7,2.6-2.5c0-1.7-0.8-2.4-2.6-2.4h-1.9v5L197.8,91L197.8,91z"/>
	<path id="XMLID_99_" class="st3" d="M205,83.9h2.3v14.6H205V83.9z"/>
	<path id="XMLID_97_" class="st3" d="M210.5,83.9h2.5l3.9,7.7c0.5,1,0.8,1.4,1.2,2.5l0,0V83.9h2.1v14.6h-2.1l-4.3-8.3
		c-0.5-1-0.8-1.4-1.2-2.5l0,0v10.7h-2.1L210.5,83.9L210.5,83.9z"/>
	<path id="XMLID_95_" class="st3" d="M223.3,83.9h7.9V86h-5.6v3.7h4v2.1h-4v4.5h5.9v2.1h-8.2L223.3,83.9L223.3,83.9z"/>
	<path id="XMLID_93_" class="st3" d="M237.6,91.2c0-5,2.2-7.5,5.4-7.5c3,0,4.2,1.9,4.7,4.8l-2.1,0.4c-0.4-2.1-1.1-3.1-2.6-3.1
		c-2,0-3.1,1.8-3.1,5.4c0,3.6,1.1,5.5,3.1,5.5c1.5,0,2.3-0.9,2.8-3.3l2.1,0.4c-0.6,2.9-1.9,5-4.9,5
		C239.7,98.8,237.6,96.3,237.6,91.2z"/>
	<path id="XMLID_90_" class="st3" d="M251,98.6h-2.1l4.2-14.7h2.2l4.2,14.7h-2.3l-1-3.5h-4.3L251,98.6z M255.3,91.2
		c-0.5-1.6-0.8-2.9-1.1-4.2l0,0c-0.3,1.4-0.7,2.6-1.2,4.2l-0.5,1.8h3.3L255.3,91.2z"/>
	<path id="XMLID_19_" class="st3" d="M261.5,83.9h4.3c2.9,0,4.7,1.3,4.7,4.4c0,2.1-1.1,3.5-2.5,3.9l2.8,6.1h-2.4l-2.6-5.7h-2v5.7
		h-2.3V83.9L261.5,83.9z M265.8,90.8c1.7,0,2.6-0.6,2.6-2.5c0-1.7-0.9-2.3-2.6-2.3h-1.9v4.8H265.8z"/>
	<path id="XMLID_17_" class="st3" d="M273.2,83.9h7.9V86h-5.6v3.7h4v2.1h-4v4.5h5.9v2.1h-8.2L273.2,83.9L273.2,83.9z"/>
</g>
<g id="XMLID_187_">
	<path id="XMLID_188_" class="st2" d="M60.4,3h13.1L94,41.8c2.6,4.7,3.8,7.4,6.4,12.8h0.2V3h10.8v73.1h-11.1L77.8,34.8
		c-2.4-4.6-3.7-7-6.3-12.4h-0.2V76H60.4V3z"/>
	<path id="XMLID_190_" class="st2" d="M129,76h-11.2l22.1-73.4h11.5L173.5,76h-12.1l-4.9-17.5H134L129,76z M151.2,39.4
		c-2.3-8.2-4.1-14.4-5.7-21.2h-0.2c-1.6,7-3.5,13.1-5.8,21.1l-2.6,8.9h16.8L151.2,39.4z"/>
	<path id="XMLID_193_" class="st2" d="M174.7,59.7l10.1-4.8c3.4,7,8.6,12.3,16.7,12.3c7.7,0,12.2-3.5,12.2-9.4
		c0-7.3-6.8-10.5-14.6-13.8c-9.8-4.3-21.3-8.8-21.3-23c0-11.4,9.5-19.3,22.3-19.3c12.5,0,19.9,6.8,24.1,15.9l-10.1,5
		c-3-6.1-6.9-10.7-14.2-10.7c-6.2,0-10.2,3.3-10.2,8.4c0,7.1,6.5,10.4,13.9,13.7c9.9,4.3,21.8,9,21.8,23.2
		c0,10.8-8.6,20.1-23.9,20.1C187.9,77.4,179.6,70.1,174.7,59.7z"/>
	<path id="XMLID_195_" class="st2" d="M230.7,59.7l10.1-4.8c3.4,7,8.6,12.3,16.7,12.3c7.7,0,12.2-3.5,12.2-9.4
		c0-7.3-6.8-10.5-14.6-13.8c-9.8-4.3-21.3-8.8-21.3-23c0-11.4,9.5-19.3,22.3-19.3c12.5,0,19.9,6.8,24.1,15.9l-10.1,5
		c-3-6.1-6.9-10.7-14.2-10.7c-6.2,0-10.2,3.3-10.2,8.4c0,7.1,6.5,10.4,13.9,13.7c9.9,4.3,21.8,9,21.8,23.2
		c0,10.8-8.6,20.1-23.9,20.1C243.9,77.4,235.7,70.1,230.7,59.7z"/>
</g>
</svg>
