<?xml version="1.0" encoding="utf-8"?>
<!-- Generator: Adobe Illustrator 27.6.1, SVG Export Plug-In . SVG Version: 6.00 Build 0)  -->
<svg version="1.1" id="Layer_1" xmlns="http://www.w3.org/2000/svg" xmlns:xlink="http://www.w3.org/1999/xlink" x="0px" y="0px"
	 viewBox="0 0 127.6 127.6" style="enable-background:new 0 0 127.6 127.6;" xml:space="preserve">
<style type="text/css">
	.st0{fill:none;stroke:#FFFFFF;stroke-miterlimit:10;}
	.st1{fill:none;stroke:#FFFFFF;stroke-miterlimit:10;stroke-dasharray:3.4555,3.4555;}
</style>
<g>
	<path class="st0" d="M72.8,45.4c1-1,2.7-5,2.7-8.3c0,0,1.9,0.1,1.9-2.2c0-2.3,0.9-4.5,0.9-4.5s1.2-3-1.2-3.3c0,0,1.2-7.7-1.6-12
		c0,0-4.3-8-12.7-8s-12.7,8-12.7,8c-2.8,4.3-1.6,12-1.6,12c-2.5,0.3-1.2,3.3-1.2,3.3s0.9,2.2,0.9,4.5c0,2.3,1.9,2.2,1.9,2.2
		c0,3.2,1.6,7.3,2.6,8.3"/>
	<path class="st0" d="M68.9,39.8c0,0-0.3,11.4,11.9,12.5s15.4,0.5,17.8,8.2s4.2,37.2,1.3,60"/>
	<path class="st0" d="M86.4,71.9c0,0,7.7,11.9,0,48.6"/>
	<path class="st0" d="M54.3,39.8c0,0,2.5,6.9-7.4,15.9c0,0-5.9,4.8-13.3,8.5s-7.7,9.6-7.4,13.5c0.3,4,4.2,27.9,3.5,42.7"/>
	<path class="st0" d="M38.4,77.8c0,0,2.4,11.4,5.8,20.4c3.5,9,1.6,17.8,1.1,22.3"/>
	<path class="st1" d="M62.8,39.8c0,0-8.8,22.8,3.4,40.3s-4.8,40.3-4.8,40.3"/>
</g>
</svg>
