<?xml version="1.0" encoding="utf-8"?>
<!-- Generator: Adobe Illustrator 26.0.2, SVG Export Plug-In . SVG Version: 6.00 Build 0)  -->
<svg version="1.1" id="Layer_1" xmlns="http://www.w3.org/2000/svg" xmlns:xlink="http://www.w3.org/1999/xlink" x="0px" y="0px"
	 viewBox="0 0 127.6 127.6" style="enable-background:new 0 0 127.6 127.6;" xml:space="preserve">
<style type="text/css">
	.st0{fill:none;stroke:#7A1668;stroke-miterlimit:10;}
</style>
<g>
	<path class="st0" d="M30.5,123.2l42.5-1.5c0.3,0,0.7-0.1,1-0.3c3.2-2.2,24.1-15.6,44.4-17.4c0.3,0,0.6-0.1,0.8-0.3
		c0.2-0.2,0.4-0.4,0.6-0.6s0.2-0.5,0.3-0.8s0-0.6-0.1-0.8c-1.2-3.2-4.9-8.2-15.8-5.9c-15.6,3.2-16.8,9.7-38.9,5.6"/>
	<path class="st0" d="M55.3,102.6c0,0,17.2-1.7,21.9-7.2c4.8-5.5-1.8-9.8-6.5-7.2c-3.8,2.1-10.8,3.1-16.4,2.6
		c-2.9-0.2-5.8,0.5-8.3,2.1l-12.4,8"/>
	<path class="st0" d="M96.7,97.6c6-10.8,12.3-9.4,14.8-8.3c0.2,0.1,0.3,0.2,0.4,0.3c0.1,0.1,0.2,0.3,0.2,0.4c0.1,0.2,0.1,0.3,0,0.5
		s-0.1,0.3-0.2,0.4c-0.4,0.6-0.8,1.2-1.2,1.8"/>
	<path class="st0" d="M86.3,101.1c0,0,5.1-14.1,16.6-10.8"/>
	<path class="st0" d="M14.3,89.7c-1.4-2.2-2.6-4.5-3.6-6.8c-3.3-7.4-5-15.5-5-23.6c0-15.3,6.1-30.1,17-40.9
		C33.4,7.5,48.2,1.4,63.5,1.4s30.1,6.1,40.9,17c10.8,10.9,16.9,25.6,16.9,40.9c0,10.9-3.1,21.5-8.8,30.8c-1.1,1.7-2.2,3.4-3.5,5"/>
	<path class="st0" d="M33.9,99.5l-3.9,25.3c0,0.4-0.2,0.7-0.5,0.9s-0.6,0.4-1,0.4L11.3,126c-0.2,0-0.4-0.1-0.6-0.1s-0.4-0.2-0.5-0.4
		c-0.1-0.2-0.2-0.3-0.3-0.6s-0.1-0.4-0.1-0.6l3.7-33.8c0-0.2,0.1-0.5,0.2-0.7c0.1-0.2,0.3-0.4,0.5-0.5s0.5-0.2,0.7-0.2
		s0.5,0.1,0.7,0.2L33,97.9c0.3,0.1,0.5,0.4,0.7,0.7C33.9,98.9,33.9,99.2,33.9,99.5L33.9,99.5z"/>
	<path class="st0" d="M73.1,87.5c10.1-9.4,24.2-25.2,24.2-40.3c0-11.2-7.9-20.3-17.8-21.1c-1.5,0-3.1,0.1-4.6,0.3
		c-1.2,0.2-2.4,0.5-3.5,1c-3.2,1.3-5.9,3.5-8,6.2c-1.7-2.3-3.9-4.2-6.5-5.5s-5.4-2-8.2-2c-10.8,0-18.5,9.7-19.2,20
		c-0.2,2.5,0,4.9,0.7,7.3c3.1,14.9,18.2,30,26.9,37.7"/>
</g>
</svg>
