<svg xmlns="http://www.w3.org/2000/svg" xmlns:xlink="http://www.w3.org/1999/xlink" width="150" zoomAndPan="magnify" viewBox="0 0 112.5 112.499997" height="150" preserveAspectRatio="xMidYMid meet" version="1.0"><defs><clipPath id="1664e9fd1b"><path d="M 0 0 L 112.003906 0 L 112.003906 112.003906 L 0 112.003906 Z M 0 0 " clip-rule="nonzero"/></clipPath></defs><g clip-path="url(#1664e9fd1b)"><path fill="#Daa520" d="M 59.5 112.003906 L 52.5 112.003906 C 51.929688 112 51.355469 111.972656 50.785156 111.917969 C 50.214844 111.859375 49.648438 111.773438 49.089844 111.664062 C 48.527344 111.550781 47.972656 111.410156 47.421875 111.242188 C 46.875 111.078125 46.335938 110.882812 45.808594 110.664062 C 45.277344 110.445312 44.761719 110.199219 44.253906 109.929688 C 43.75 109.660156 43.257812 109.363281 42.785156 109.046875 C 42.308594 108.726562 41.847656 108.386719 41.40625 108.023438 C 40.960938 107.660156 40.539062 107.277344 40.132812 106.871094 C 39.726562 106.464844 39.34375 106.042969 38.980469 105.597656 C 38.617188 105.15625 38.273438 104.695312 37.957031 104.21875 C 37.636719 103.742188 37.34375 103.253906 37.074219 102.746094 C 36.804688 102.242188 36.558594 101.726562 36.339844 101.195312 C 36.117188 100.667969 35.925781 100.128906 35.757812 99.578125 C 35.59375 99.03125 35.453125 98.476562 35.339844 97.914062 C 35.226562 97.351562 35.144531 96.785156 35.085938 96.214844 C 35.03125 95.644531 35 95.074219 35 94.5 L 35 77 L 17.5 77 C 16.925781 77 16.355469 76.972656 15.785156 76.914062 C 15.214844 76.859375 14.648438 76.773438 14.085938 76.660156 C 13.527344 76.550781 12.972656 76.410156 12.421875 76.242188 C 11.875 76.078125 11.335938 75.882812 10.804688 75.664062 C 10.277344 75.445312 9.761719 75.199219 9.253906 74.929688 C 8.75 74.660156 8.257812 74.363281 7.78125 74.046875 C 7.304688 73.726562 6.847656 73.386719 6.402344 73.023438 C 5.960938 72.660156 5.535156 72.273438 5.132812 71.871094 C 4.726562 71.464844 4.34375 71.039062 3.980469 70.597656 C 3.617188 70.15625 3.273438 69.695312 2.957031 69.21875 C 2.636719 68.742188 2.34375 68.25 2.074219 67.746094 C 1.800781 67.242188 1.558594 66.722656 1.335938 66.195312 C 1.117188 65.664062 0.925781 65.128906 0.757812 64.578125 C 0.589844 64.03125 0.453125 63.476562 0.339844 62.914062 C 0.226562 62.351562 0.144531 61.785156 0.0859375 61.214844 C 0.03125 60.644531 0 60.074219 0 59.5 L 0 52.5 C 0 51.929688 0.03125 51.355469 0.0859375 50.785156 C 0.144531 50.214844 0.226562 49.648438 0.339844 49.089844 C 0.453125 48.527344 0.589844 47.972656 0.757812 47.421875 C 0.925781 46.875 1.117188 46.335938 1.335938 45.808594 C 1.558594 45.277344 1.800781 44.761719 2.074219 44.253906 C 2.34375 43.75 2.636719 43.257812 2.957031 42.785156 C 3.273438 42.308594 3.617188 41.847656 3.980469 41.40625 C 4.34375 40.960938 4.726562 40.539062 5.132812 40.132812 C 5.535156 39.726562 5.960938 39.34375 6.402344 38.980469 C 6.847656 38.617188 7.304688 38.273438 7.78125 37.957031 C 8.257812 37.636719 8.75 37.34375 9.253906 37.074219 C 9.761719 36.804688 10.277344 36.558594 10.804688 36.339844 C 11.335938 36.117188 11.875 35.925781 12.421875 35.757812 C 12.972656 35.59375 13.527344 35.453125 14.085938 35.339844 C 14.648438 35.226562 15.214844 35.144531 15.785156 35.085938 C 16.355469 35.03125 16.925781 35 17.5 35 L 35 35 L 35 17.5 C 35 16.925781 35.03125 16.355469 35.085938 15.785156 C 35.144531 15.214844 35.226562 14.648438 35.339844 14.085938 C 35.453125 13.527344 35.59375 12.972656 35.757812 12.421875 C 35.925781 11.875 36.117188 11.335938 36.339844 10.804688 C 36.558594 10.277344 36.804688 9.761719 37.074219 9.253906 C 37.34375 8.75 37.636719 8.257812 37.957031 7.78125 C 38.273438 7.304688 38.617188 6.847656 38.980469 6.402344 C 39.34375 5.960938 39.726562 5.535156 40.132812 5.132812 C 40.539062 4.726562 40.960938 4.34375 41.40625 3.980469 C 41.847656 3.617188 42.308594 3.273438 42.785156 2.957031 C 43.257812 2.636719 43.75 2.34375 44.253906 2.074219 C 44.761719 1.800781 45.277344 1.558594 45.808594 1.335938 C 46.335938 1.117188 46.875 0.925781 47.421875 0.757812 C 47.972656 0.589844 48.527344 0.453125 49.089844 0.339844 C 49.648438 0.226562 50.214844 0.144531 50.785156 0.0859375 C 51.355469 0.03125 51.929688 0 52.5 0 L 59.5 0 C 62.628906 0 65.542969 0.78125 68.25 2.34375 C 68.632812 2.585938 68.953125 2.890625 69.21875 3.257812 C 69.480469 3.625 69.664062 4.027344 69.773438 4.464844 C 69.878906 4.90625 69.902344 5.347656 69.839844 5.792969 C 69.773438 6.242188 69.628906 6.660156 69.402344 7.050781 C 69.179688 7.441406 68.886719 7.777344 68.53125 8.054688 C 68.175781 8.332031 67.78125 8.535156 67.347656 8.660156 C 66.914062 8.785156 66.472656 8.828125 66.023438 8.78125 C 65.574219 8.738281 65.152344 8.609375 64.75 8.398438 C 63.125 7.464844 61.375 7 59.5 7 L 52.5 7 C 51.8125 7 51.128906 7.066406 50.453125 7.203125 C 49.777344 7.335938 49.121094 7.535156 48.484375 7.800781 C 47.847656 8.0625 47.242188 8.386719 46.667969 8.769531 C 46.09375 9.152344 45.5625 9.589844 45.078125 10.074219 C 44.589844 10.5625 44.152344 11.09375 43.769531 11.667969 C 43.386719 12.238281 43.0625 12.84375 42.800781 13.480469 C 42.535156 14.117188 42.335938 14.777344 42.203125 15.453125 C 42.066406 16.128906 42 16.8125 42 17.5 L 42 38.5 C 42 38.964844 41.910156 39.410156 41.734375 39.839844 C 41.558594 40.269531 41.304688 40.648438 40.976562 40.976562 C 40.648438 41.304688 40.269531 41.558594 39.839844 41.734375 C 39.410156 41.910156 38.964844 42 38.5 42 L 17.5 42 C 16.8125 42 16.128906 42.066406 15.453125 42.203125 C 14.777344 42.335938 14.117188 42.535156 13.480469 42.800781 C 12.84375 43.0625 12.238281 43.386719 11.667969 43.769531 C 11.09375 44.152344 10.5625 44.589844 10.074219 45.078125 C 9.589844 45.5625 9.152344 46.09375 8.769531 46.667969 C 8.386719 47.242188 8.0625 47.847656 7.800781 48.484375 C 7.535156 49.121094 7.335938 49.777344 7.203125 50.453125 C 7.066406 51.128906 7 51.8125 7 52.5 L 7 59.5 C 7 60.191406 7.066406 60.875 7.203125 61.550781 C 7.335938 62.226562 7.535156 62.882812 7.800781 63.519531 C 8.0625 64.15625 8.386719 64.761719 8.769531 65.335938 C 9.152344 65.90625 9.589844 66.4375 10.074219 66.925781 C 10.5625 67.414062 11.09375 67.847656 11.667969 68.230469 C 12.238281 68.613281 12.84375 68.9375 13.480469 69.203125 C 14.117188 69.464844 14.777344 69.664062 15.453125 69.800781 C 16.128906 69.933594 16.8125 70 17.5 70 L 38.5 70 C 38.964844 70 39.410156 70.089844 39.839844 70.269531 C 40.269531 70.445312 40.648438 70.699219 40.976562 71.027344 C 41.304688 71.355469 41.558594 71.734375 41.734375 72.160156 C 41.910156 72.589844 42 73.039062 42 73.5 L 42 94.5 C 42 95.191406 42.066406 95.875 42.203125 96.550781 C 42.335938 97.226562 42.535156 97.882812 42.800781 98.519531 C 43.0625 99.15625 43.386719 99.761719 43.769531 100.335938 C 44.152344 100.910156 44.589844 101.4375 45.078125 101.925781 C 45.5625 102.414062 46.09375 102.847656 46.667969 103.234375 C 47.242188 103.617188 47.847656 103.9375 48.484375 104.203125 C 49.121094 104.464844 49.777344 104.664062 50.453125 104.800781 C 51.128906 104.933594 51.8125 105.003906 52.5 105.003906 L 59.5 105.003906 C 60.191406 105.003906 60.875 104.933594 61.550781 104.800781 C 62.226562 104.664062 62.882812 104.464844 63.519531 104.203125 C 64.15625 103.9375 64.761719 103.617188 65.335938 103.234375 C 65.90625 102.847656 66.4375 102.414062 66.925781 101.925781 C 67.414062 101.4375 67.847656 100.910156 68.230469 100.335938 C 68.613281 99.761719 68.9375 99.15625 69.203125 98.519531 C 69.464844 97.882812 69.664062 97.226562 69.800781 96.550781 C 69.933594 95.875 70 95.191406 70 94.5 L 70 73.5 C 70 73.039062 70.089844 72.589844 70.269531 72.160156 C 70.445312 71.734375 70.699219 71.355469 71.027344 71.027344 C 71.355469 70.699219 71.734375 70.445312 72.160156 70.269531 C 72.589844 70.089844 73.039062 70 73.5 70 L 94.5 70 C 95.191406 70 95.875 69.933594 96.550781 69.800781 C 97.226562 69.664062 97.882812 69.464844 98.519531 69.203125 C 99.15625 68.9375 99.761719 68.613281 100.335938 68.230469 C 100.910156 67.847656 101.4375 67.414062 101.925781 66.925781 C 102.414062 66.4375 102.847656 65.90625 103.234375 65.335938 C 103.617188 64.761719 103.9375 64.15625 104.203125 63.519531 C 104.464844 62.882812 104.664062 62.226562 104.800781 61.550781 C 104.933594 60.875 105.003906 60.191406 105.003906 59.5 L 105.003906 52.5 C 105.003906 50.625 104.535156 48.875 103.601562 47.25 C 103.394531 46.851562 103.265625 46.425781 103.222656 45.976562 C 103.175781 45.527344 103.214844 45.085938 103.34375 44.652344 C 103.46875 44.21875 103.667969 43.824219 103.949219 43.46875 C 104.226562 43.113281 104.5625 42.824219 104.953125 42.597656 C 105.34375 42.371094 105.761719 42.226562 106.207031 42.164062 C 106.65625 42.101562 107.097656 42.121094 107.535156 42.230469 C 107.972656 42.335938 108.378906 42.523438 108.742188 42.785156 C 109.109375 43.046875 109.414062 43.371094 109.65625 43.75 C 111.222656 46.457031 112.003906 49.375 112.003906 52.5 L 112.003906 59.5 C 112 60.074219 111.972656 60.644531 111.917969 61.214844 C 111.859375 61.785156 111.773438 62.351562 111.664062 62.914062 C 111.550781 63.476562 111.410156 64.03125 111.242188 64.578125 C 111.078125 65.128906 110.882812 65.664062 110.664062 66.195312 C 110.445312 66.722656 110.199219 67.242188 109.929688 67.746094 C 109.660156 68.25 109.363281 68.742188 109.046875 69.21875 C 108.726562 69.695312 108.386719 70.15625 108.023438 70.597656 C 107.660156 71.039062 107.277344 71.464844 106.871094 71.871094 C 106.464844 72.273438 106.042969 72.660156 105.597656 73.023438 C 105.15625 73.386719 104.695312 73.726562 104.21875 74.046875 C 103.742188 74.363281 103.253906 74.660156 102.746094 74.929688 C 102.242188 75.199219 101.726562 75.445312 101.195312 75.664062 C 100.667969 75.882812 100.128906 76.078125 99.578125 76.242188 C 99.03125 76.410156 98.476562 76.550781 97.914062 76.660156 C 97.351562 76.773438 96.785156 76.859375 96.214844 76.914062 C 95.644531 76.972656 95.074219 77 94.5 77 L 77 77 L 77 94.5 C 77 95.074219 76.972656 95.644531 76.914062 96.214844 C 76.859375 96.785156 76.773438 97.351562 76.660156 97.914062 C 76.550781 98.476562 76.410156 99.03125 76.242188 99.578125 C 76.078125 100.128906 75.882812 100.667969 75.664062 101.195312 C 75.445312 101.726562 75.199219 102.242188 74.929688 102.746094 C 74.660156 103.253906 74.363281 103.742188 74.046875 104.21875 C 73.726562 104.695312 73.386719 105.15625 73.023438 105.597656 C 72.660156 106.042969 72.273438 106.464844 71.871094 106.871094 C 71.464844 107.277344 71.039062 107.660156 70.597656 108.023438 C 70.15625 108.386719 69.695312 108.726562 69.21875 109.046875 C 68.742188 109.363281 68.25 109.660156 67.746094 109.929688 C 67.242188 110.199219 66.722656 110.445312 66.195312 110.664062 C 65.664062 110.882812 65.128906 111.078125 64.578125 111.242188 C 64.03125 111.410156 63.476562 111.550781 62.914062 111.664062 C 62.351562 111.773438 61.785156 111.859375 61.214844 111.917969 C 60.644531 111.972656 60.074219 112 59.5 112.003906 Z M 59.5 112.003906 " fill-opacity="1" fill-rule="nonzero"/></g><path fill="#Daa520" d="M 77 56 C 76.292969 56 75.648438 55.804688 75.058594 55.414062 C 72.75 53.875 52.5 40.027344 52.5 28 C 52.5 27.292969 52.554688 26.589844 52.660156 25.894531 C 52.769531 25.195312 52.929688 24.507812 53.136719 23.832031 C 53.347656 23.160156 53.609375 22.503906 53.917969 21.867188 C 54.230469 21.234375 54.585938 20.625 54.988281 20.042969 C 55.390625 19.464844 55.832031 18.914062 56.320312 18.402344 C 56.804688 17.886719 57.324219 17.414062 57.882812 16.976562 C 58.4375 16.542969 59.023438 16.152344 59.640625 15.804688 C 60.257812 15.460938 60.894531 15.160156 61.554688 14.914062 C 62.21875 14.664062 62.894531 14.464844 63.585938 14.316406 C 64.277344 14.167969 64.972656 14.074219 65.679688 14.035156 C 66.382812 13.992188 67.089844 14.003906 67.792969 14.070312 C 68.496094 14.136719 69.191406 14.253906 69.878906 14.421875 C 70.5625 14.59375 71.230469 14.8125 71.882812 15.085938 C 72.535156 15.359375 73.164062 15.675781 73.769531 16.042969 C 74.371094 16.410156 74.945312 16.820312 75.488281 17.273438 C 76.03125 17.726562 76.535156 18.21875 77 18.75 C 77.46875 18.21875 77.972656 17.726562 78.515625 17.273438 C 79.058594 16.820312 79.628906 16.410156 80.234375 16.042969 C 80.839844 15.675781 81.464844 15.359375 82.117188 15.085938 C 82.769531 14.8125 83.441406 14.59375 84.125 14.421875 C 84.8125 14.253906 85.507812 14.136719 86.210938 14.070312 C 86.914062 14.003906 87.617188 13.992188 88.324219 14.035156 C 89.027344 14.074219 89.726562 14.167969 90.417969 14.316406 C 91.109375 14.464844 91.785156 14.664062 92.445312 14.914062 C 93.109375 15.160156 93.746094 15.460938 94.363281 15.804688 C 94.980469 16.152344 95.566406 16.542969 96.121094 16.976562 C 96.679688 17.414062 97.199219 17.886719 97.683594 18.402344 C 98.167969 18.914062 98.613281 19.464844 99.015625 20.042969 C 99.417969 20.625 99.773438 21.234375 100.082031 21.867188 C 100.394531 22.503906 100.652344 23.160156 100.863281 23.832031 C 101.074219 24.507812 101.234375 25.195312 101.339844 25.894531 C 101.449219 26.589844 101.5 27.292969 101.503906 28 C 101.503906 40.027344 81.253906 53.875 78.945312 55.414062 C 78.355469 55.804688 77.707031 56 77 56 Z M 66.5 21 C 66.042969 21 65.585938 21.046875 65.136719 21.136719 C 64.683594 21.222656 64.246094 21.355469 63.824219 21.535156 C 63.398438 21.710938 62.996094 21.925781 62.613281 22.179688 C 62.230469 22.433594 61.875 22.726562 61.550781 23.050781 C 61.226562 23.375 60.9375 23.730469 60.679688 24.113281 C 60.425781 24.492188 60.210938 24.898438 60.035156 25.320312 C 59.859375 25.746094 59.726562 26.183594 59.636719 26.636719 C 59.546875 27.085938 59.5 27.539062 59.5 28 C 59.5 33.484375 69.164062 42.632812 77 48.246094 C 84.464844 42.898438 94.5 33.753906 94.5 28 C 94.5 27.539062 94.457031 27.085938 94.367188 26.636719 C 94.277344 26.183594 94.144531 25.746094 93.96875 25.320312 C 93.792969 24.898438 93.578125 24.492188 93.320312 24.113281 C 93.066406 23.730469 92.777344 23.375 92.453125 23.050781 C 92.125 22.726562 91.773438 22.433594 91.390625 22.179688 C 91.007812 21.925781 90.605469 21.710938 90.179688 21.535156 C 89.757812 21.355469 89.316406 21.222656 88.867188 21.136719 C 88.417969 21.046875 87.960938 21 87.5 21 C 87.042969 21 86.585938 21.046875 86.136719 21.136719 C 85.683594 21.222656 85.246094 21.355469 84.824219 21.535156 C 84.398438 21.710938 83.996094 21.925781 83.613281 22.179688 C 83.230469 22.433594 82.875 22.726562 82.550781 23.050781 C 82.226562 23.375 81.9375 23.730469 81.679688 24.113281 C 81.425781 24.492188 81.210938 24.898438 81.035156 25.320312 C 80.859375 25.746094 80.726562 26.183594 80.636719 26.636719 C 80.546875 27.085938 80.5 27.539062 80.5 28 C 80.5 28.464844 80.414062 28.910156 80.234375 29.339844 C 80.058594 29.769531 79.804688 30.148438 79.476562 30.476562 C 79.148438 30.804688 78.769531 31.054688 78.339844 31.234375 C 77.914062 31.410156 77.464844 31.5 77 31.5 C 76.539062 31.5 76.089844 31.410156 75.660156 31.234375 C 75.234375 31.054688 74.855469 30.804688 74.527344 30.476562 C 74.199219 30.148438 73.945312 29.769531 73.769531 29.339844 C 73.589844 28.910156 73.5 28.464844 73.5 28 C 73.5 27.539062 73.457031 27.085938 73.367188 26.636719 C 73.277344 26.183594 73.144531 25.746094 72.96875 25.320312 C 72.792969 24.898438 72.578125 24.492188 72.320312 24.113281 C 72.066406 23.730469 71.777344 23.375 71.449219 23.050781 C 71.125 22.726562 70.773438 22.433594 70.390625 22.179688 C 70.007812 21.925781 69.605469 21.710938 69.179688 21.535156 C 68.753906 21.355469 68.316406 21.222656 67.867188 21.136719 C 67.417969 21.046875 66.960938 21 66.5 21 Z M 66.5 21 " fill-opacity="1" fill-rule="nonzero"/></svg>