<svg xmlns="http://www.w3.org/2000/svg" xmlns:xlink="http://www.w3.org/1999/xlink" width="50" zoomAndPan="magnify" viewBox="0 0 37.5 37.499999" height="50" preserveAspectRatio="xMidYMid meet" version="1.0"><defs><clipPath id="69bbf3cbf2"><path d="M 0 8.972656 L 37.007812 8.972656 L 37.007812 28.21875 L 0 28.21875 Z M 0 8.972656 " clip-rule="nonzero"/></clipPath></defs><g clip-path="url(#69bbf3cbf2)"><path fill="#ffffff" d="M 0.00390625 20.496094 C 3.027344 20.472656 7.824219 20.449219 10.886719 20.4375 C 10.886719 20.4375 10.816406 20.484375 10.816406 20.484375 C 10.816406 20.484375 12.144531 16.710938 12.144531 16.710938 C 12.144531 16.710938 12.296875 16.285156 12.296875 16.285156 C 12.386719 19.1875 12.546875 24.578125 12.628906 27.480469 C 12.628906 27.480469 12.4375 27.472656 12.4375 27.472656 C 12.71875 25.359375 13.28125 21.121094 13.570312 19.011719 C 13.570312 19.011719 13.707031 19.015625 13.707031 19.015625 L 13.878906 22.960938 C 13.878906 22.960938 13.773438 22.949219 13.773438 22.949219 L 14.679688 20.125 C 14.679688 20.125 14.6875 20.09375 14.6875 20.09375 C 14.6875 20.09375 14.71875 20.09375 14.71875 20.09375 L 17.804688 20.101562 C 17.804688 20.101562 17.773438 20.128906 17.773438 20.128906 C 18.421875 17.25 19.628906 11.855469 20.265625 8.972656 C 20.34375 13.828125 20.484375 23.167969 20.550781 28.023438 C 20.550781 28.023438 20.34375 28.015625 20.34375 28.015625 C 20.34375 28.015625 20.964844 20.238281 20.964844 20.238281 C 20.964844 20.238281 20.972656 20.132812 20.972656 20.132812 C 20.972656 20.132812 21.078125 20.132812 21.078125 20.132812 L 23.015625 20.132812 C 23.015625 20.132812 22.902344 20.21875 22.902344 20.21875 C 23.007812 19.792969 23.433594 18.046875 23.53125 17.652344 C 23.566406 17.976562 24.007812 21.195312 24.058594 21.609375 C 24.058594 21.609375 23.832031 21.605469 23.832031 21.605469 C 23.929688 20.96875 24.769531 15.398438 24.839844 14.925781 C 24.851562 15.082031 25.375 22.886719 25.40625 23.367188 C 25.40625 23.367188 25.238281 23.363281 25.238281 23.363281 C 25.238281 23.363281 25.546875 20.351562 25.546875 20.351562 C 25.546875 20.351562 25.554688 20.285156 25.554688 20.285156 C 25.554688 20.285156 25.617188 20.285156 25.617188 20.285156 C 28.449219 20.296875 34.171875 20.328125 37.003906 20.347656 C 34.214844 20.433594 28.445312 20.398438 25.617188 20.433594 C 25.617188 20.433594 25.691406 20.367188 25.691406 20.367188 C 25.691406 20.367188 25.40625 23.382812 25.40625 23.382812 L 25.238281 23.378906 L 24.695312 15.902344 C 24.695312 15.902344 24.902344 15.910156 24.902344 15.910156 C 24.835938 16.386719 23.976562 22.175781 23.9375 22.4375 C 23.871094 21.941406 23.460938 18.859375 23.382812 18.289062 C 23.382812 18.289062 23.609375 18.304688 23.609375 18.304688 L 23.125 20.273438 C 23.125 20.273438 23.105469 20.363281 23.105469 20.363281 C 23.105469 20.363281 23.015625 20.363281 23.015625 20.363281 L 21.078125 20.363281 C 21.078125 20.363281 21.195312 20.257812 21.195312 20.257812 C 21.195312 20.257812 20.550781 28.03125 20.550781 28.03125 C 20.550781 28.03125 20.34375 28.023438 20.34375 28.023438 C 20.292969 23.378906 20.210938 14.027344 20.175781 9.382812 C 20.175781 9.382812 20.269531 9.394531 20.269531 9.394531 C 19.65625 12.089844 18.4375 17.472656 17.832031 20.171875 C 17.832031 20.171875 17.804688 20.171875 17.804688 20.171875 L 14.71875 20.175781 C 14.71875 20.175781 14.757812 20.148438 14.757812 20.148438 C 14.757812 20.148438 13.875 22.980469 13.875 22.980469 C 13.875 22.980469 13.785156 23.261719 13.785156 23.261719 C 13.785156 23.261719 13.773438 22.964844 13.773438 22.964844 C 13.773438 22.964844 13.570312 19.023438 13.570312 19.023438 C 13.570312 19.023438 13.707031 19.027344 13.707031 19.027344 C 13.445312 21.136719 12.898438 25.386719 12.628906 27.496094 C 12.628906 27.496094 12.4375 27.484375 12.4375 27.484375 C 12.363281 24.808594 12.207031 19.421875 12.140625 16.742188 C 12.140625 16.742188 12.304688 16.769531 12.304688 16.769531 L 10.953125 20.53125 C 10.953125 20.53125 10.9375 20.582031 10.9375 20.582031 C 10.9375 20.582031 10.886719 20.578125 10.886719 20.578125 C 7.835938 20.546875 2.980469 20.585938 0.00390625 20.496094 Z M 0.00390625 20.496094 " fill-opacity="1" fill-rule="nonzero"/></g></svg>